<svg xmlns="http://www.w3.org/2000/svg" xmlns:xlink="http://www.w3.org/1999/xlink" viewBox="0 0 256.14 82.46"><defs><style>.cls-1,.cls-9{fill:#fff;}.cls-2{fill:url(#linear-gradient);}.cls-3{fill:url(#linear-gradient-2);}.cls-4{fill:url(#linear-gradient-3);}.cls-5{fill:#bababa;}.cls-6{fill:#afafaf;}.cls-7{fill:#232323;}.cls-8{fill:#9b9b9b;}.cls-9{font-size:18.81px;font-family:ProductSans-Bold, Product Sans;font-weight:700;letter-spacing:-0.01em;}.cls-10{letter-spacing:0em;}.cls-11{fill:url(#linear-gradient-4);}</style><linearGradient id="linear-gradient" x1="128.81" y1="33.8" x2="179.98" y2="67.03" gradientUnits="userSpaceOnUse"><stop offset="0" stop-color="#0a6dcc"/><stop offset="1" stop-color="#39b5ff"/></linearGradient><linearGradient id="linear-gradient-2" x1="35.27" y1="56.01" x2="82.13" y2="25.57" gradientUnits="userSpaceOnUse"><stop offset="0" stop-color="#006eaa"/><stop offset="1" stop-color="#00adff"/></linearGradient><linearGradient id="linear-gradient-3" x1="-9.69" y1="25.57" x2="37.18" y2="56.01" xlink:href="#linear-gradient"/><linearGradient id="linear-gradient-4" x1="225.4" y1="38.92" x2="252.06" y2="56.23" xlink:href="#linear-gradient"/></defs><title>Asset 12</title><g id="Layer_2" data-name="Layer 2"><g id="Layer_1-2" data-name="Layer 1"><path class="cls-1" d="M128.35,40.77a29.75,29.75,0,0,0-2.43-12,30.84,30.84,0,0,0-6.61-9.75,31.51,31.51,0,0,0-9.82-6.57,30.91,30.91,0,0,0-24,0,31.61,31.61,0,0,0-9.79,6.57,30.79,30.79,0,0,0-6.61,9.75,30.63,30.63,0,0,0,0,23.9A30.69,30.69,0,0,0,85.47,69a31.36,31.36,0,0,0,24,0,30.59,30.59,0,0,0,16.43-16.28A29.74,29.74,0,0,0,128.35,40.77Zm-16.77,6.05a16.12,16.12,0,0,1-3.17,5.08,15.38,15.38,0,0,1-4.82,3.47,14.83,14.83,0,0,1-12.18,0,15.37,15.37,0,0,1-4.82-3.47,16.43,16.43,0,0,1,0-22.26,15.4,15.4,0,0,1,4.82-3.47,14.83,14.83,0,0,1,12.18,0,15.4,15.4,0,0,1,4.82,3.47,16.44,16.44,0,0,1,3.17,17.18Z"/><path class="cls-2" d="M143.2,11.64l-21.44,58h16.36l3-8H159l3,8h16.36l-21.44-58Zm2.24,36.45,4.63-15.31,4.56,15.31Z"/><rect class="cls-1" x="183.32" y="60.94" width="15.76" height="8.67"/><polygon class="cls-1" points="166.36 11.64 166.36 24.94 167.41 25.98 183.32 25.98 183.32 33.44 199.08 33.44 199.08 25.98 214.99 25.98 216.03 24.94 216.03 11.64 166.36 11.64"/><path class="cls-1" d="M6.91,4.18l10.76-.62c.93,0,1.68,1.37,1.68,2.3H5.8V5.29A1.11,1.11,0,0,1,6.91,4.18Z"/><path class="cls-1" d="M55,3.56l10.76.62a1.11,1.11,0,0,1,1.11,1.11v.57H53.31C53.31,4.93,54.06,3.56,55,3.56Z"/><path class="cls-3" d="M64.63,5.34H53.45a6.65,6.65,0,0,0-5.18,2.47l-12,14.94V57.48L50.27,40V71.25a5.82,5.82,0,0,0,5.82,5.82h5.24A11.12,11.12,0,0,0,72.45,66V12.75A7.62,7.62,0,0,0,64.63,5.34Z"/><path class="cls-4" d="M7.82,5.34H19a6.65,6.65,0,0,1,5.18,2.47l12,14.94V57.48L22.18,40V71.25a5.82,5.82,0,0,1-5.82,5.82H11.12A11.12,11.12,0,0,1,0,66V12.75A7.62,7.62,0,0,1,7.82,5.34Z"/><circle class="cls-5" cx="11.33" cy="19.16" r="5.29"/><circle class="cls-1" cx="11.33" cy="19.16" r="4.25"/><circle class="cls-5" cx="61.56" cy="42.58" r="5.29"/><circle class="cls-1" cx="61.56" cy="42.58" r="4.25"/><ellipse class="cls-1" cx="61.36" cy="14.44" rx="2.41" ry="2.49"/><path class="cls-1" d="M63.07,25.65a2.55,2.55,0,0,0,0-3.53,2.36,2.36,0,0,0-3.42,0,2.55,2.55,0,0,0,0,3.53A2.36,2.36,0,0,0,63.07,25.65Z"/><ellipse class="cls-1" cx="56.05" cy="19.43" rx="2.41" ry="2.49"/><ellipse class="cls-1" cx="66.67" cy="19.43" rx="2.41" ry="2.49"/><path class="cls-1" d="M15.41,41.09H12.87a.21.21,0,0,1-.21-.21V38.34a1.27,1.27,0,0,0-1.27-1.27h0a1.27,1.27,0,0,0-1.27,1.27v2.54a.21.21,0,0,1-.21.21H7.37A1.27,1.27,0,0,0,6.1,42.36h0a1.27,1.27,0,0,0,1.27,1.27H9.91a.21.21,0,0,1,.21.21v2.54a1.27,1.27,0,0,0,1.27,1.27h0a1.27,1.27,0,0,0,1.27-1.27V43.84a.21.21,0,0,1,.21-.21h2.54a1.27,1.27,0,0,0,1.27-1.27h0A1.27,1.27,0,0,0,15.41,41.09Z"/><path class="cls-6" d="M153.49,44.75c-.15.25-19.74,31.68-72.7,35.63-35.46,2.67-42-3.23-40.4-8.49,1.08-3.54,5.88-7.22,9.88-9.76V61C45.77,63.74,39.93,68,38.56,72.42,35.92,80.88,51.36,84,80.14,81.73c1.82-.15,3.6-.32,5.35-.53C132.9,75.56,152,48.56,153.9,45.63l-.31-1Z"/><path class="cls-7" d="M154.38,44.59"/><path class="cls-6" d="M167.08,25.66c-1.24,1.38-2.41,2.77-3.5,4.14l.4,1.09c1.26-1.61,2.64-3.26,4.13-4.89h-.7Z"/><path class="cls-6" d="M215.46,21.4c-.25-4-4.34-7.45-12.14-10.23a24.48,24.48,0,0,0-17.55.47h3.16a23,23,0,0,1,14.06.47c7.39,2.63,11.26,5.78,11.48,9.35C214.87,28,203,34.05,202.92,34.11l.45.89C203.89,34.75,215.91,28.59,215.46,21.4Z"/><rect class="cls-8" x="201.37" y="33.63" width="2.2" height="2.67" transform="translate(270.15 228.97) rotate(-119.03)"/><rect class="cls-1" x="200.19" y="35.42" width="1.57" height="0.75" transform="translate(267.2 228.89) rotate(-119.03)"/><path class="cls-5" d="M69.82,8.91C63.19,1.72,57.06-1.13,51.6.4c-8.9,2.51-13.47,15.88-15.13,22l1.67-2.06c2-6.52,6.38-16.95,13.73-19C56.94-.06,62.73,2.7,69.08,9.59,77.32,18.52,81,27.07,79.92,35a23,23,0,0,1-7.47,13.63V50a24,24,0,0,0,8.46-14.85C82,26.9,78.27,18.07,69.82,8.91Z"/><text></text><text></text><text class="cls-9" transform="translate(178.31 54)">G<tspan class="cls-10" x="15.05" y="0">AM</tspan></text><g id="_Group_" data-name="&lt;Group&gt;"><path class="cls-11" d="M224.35,40.53h2.54V54h-2.54Z"/><path class="cls-11" d="M229.6,40.53h3l5.42,9h.15L238,47V40.53h2.52V54h-2.67l-5.72-9.54H232l.15,2.6V54h-2.5Z"/><path class="cls-11" d="M249.41,46.6H256a4.58,4.58,0,0,1,.09.54,5.42,5.42,0,0,1,0,.64,7.45,7.45,0,0,1-.39,2.45,5.67,5.67,0,0,1-1.24,2,6.22,6.22,0,0,1-2.16,1.49,7.43,7.43,0,0,1-2.88.53,7.29,7.29,0,0,1-2.76-.53,6.87,6.87,0,0,1-2.26-1.47,7.06,7.06,0,0,1-1.52-2.23,7.29,7.29,0,0,1,0-5.62,7.07,7.07,0,0,1,1.52-2.23,6.87,6.87,0,0,1,2.26-1.47,7.69,7.69,0,0,1,5.69,0,6.54,6.54,0,0,1,2.21,1.56l-1.75,1.71A4.78,4.78,0,0,0,247.7,43a4.36,4.36,0,0,0-1.45.93,4.43,4.43,0,0,0-1,1.46,5.15,5.15,0,0,0,0,3.82,4.35,4.35,0,0,0,1,1.46,4.49,4.49,0,0,0,1.46.93,5.17,5.17,0,0,0,3.58,0,4.23,4.23,0,0,0,1.27-.8,3,3,0,0,0,.65-.86,4.83,4.83,0,0,0,.42-1.16h-4.23Z"/></g></g></g></svg>