<svg id="Layer_1" data-name="Layer 1" xmlns="http://www.w3.org/2000/svg" xmlns:xlink="http://www.w3.org/1999/xlink" viewBox="0 0 337.1 147.25"><defs><style>.cls-1{fill:#18b35b;}.cls-2{fill:#bda171;}.cls-3{fill:#a97d51;}.cls-4{fill:url(#linear-gradient);}.cls-5{fill:url(#linear-gradient-2);}.cls-6{fill:url(#linear-gradient-3);}.cls-7{fill:url(#linear-gradient-4);}.cls-8{fill:#ffcd4e;}.cls-9{fill:#1e1e1e;}.cls-10,.cls-19{fill:#f2f2f2;}.cls-11{fill:url(#linear-gradient-5);}.cls-12{fill:url(#linear-gradient-6);}.cls-13{fill:#fff;}.cls-14{fill:url(#linear-gradient-7);}.cls-15{fill:#d6186d;}.cls-16{fill:#fcee23;}.cls-17,.cls-18{opacity:0.65;}.cls-17,.cls-18,.cls-19,.cls-26{isolation:isolate;}.cls-17{fill:url(#linear-gradient-8);}.cls-18{fill:url(#linear-gradient-9);}.cls-19{opacity:0.56;}.cls-20{fill:#232323;}.cls-21{fill:#b0b0b0;}.cls-22{fill:#9b9b9b;}.cls-23{fill:#bbb;}.cls-24{fill:url(#linear-gradient-10);}.cls-25{fill:url(#linear-gradient-11);}.cls-27{fill:url(#linear-gradient-12);}.cls-28{fill:url(#linear-gradient-13);}.cls-29{fill:url(#linear-gradient-14);}.cls-30{fill:url(#linear-gradient-15);}.cls-31{fill:url(#linear-gradient-16);}.cls-32{fill:url(#linear-gradient-17);}.cls-33{fill:#231f20;}.cls-34{fill:#61bd64;}</style><linearGradient id="linear-gradient" x1="19.2" y1="137.66" x2="21.37" y2="149.97" gradientTransform="matrix(0.99, 0.1, 0.1, -0.99, 57.26, 171.87)" gradientUnits="userSpaceOnUse"><stop offset="0" stop-color="#61bd64"/><stop offset="0.46" stop-color="#5fba62"/><stop offset="0.65" stop-color="#57b45d"/><stop offset="0.79" stop-color="#49aa56"/><stop offset="0.91" stop-color="#309f4d"/><stop offset="0.99" stop-color="#019547"/></linearGradient><linearGradient id="linear-gradient-2" x1="7.83" y1="124.13" x2="15.93" y2="138.16" xlink:href="#linear-gradient"/><linearGradient id="linear-gradient-3" x1="-45.38" y1="148.92" x2="-34.72" y2="167.39" xlink:href="#linear-gradient"/><linearGradient id="linear-gradient-4" x1="29.15" y1="105.62" x2="47.67" y2="137.69" gradientTransform="matrix(1, -0.02, -0.02, -1, -3.23, 145.22)" xlink:href="#linear-gradient"/><linearGradient id="linear-gradient-5" x1="277.92" y1="-15.55" x2="284.86" y2="3.51" gradientTransform="matrix(0.99, -0.15, -0.15, -0.99, -88.61, 89.86)" gradientUnits="userSpaceOnUse"><stop offset="0" stop-color="#9e1c20"/><stop offset="0.15" stop-color="#ae2226"/><stop offset="0.33" stop-color="#bb272a"/><stop offset="0.56" stop-color="#c22a2d"/><stop offset="1" stop-color="#c42b2e"/></linearGradient><linearGradient id="linear-gradient-6" x1="311.33" y1="-27.39" x2="306.42" y2="0.41" xlink:href="#linear-gradient-5"/><linearGradient id="linear-gradient-7" x1="202.6" y1="47.4" x2="259.14" y2="47.4" gradientTransform="matrix(1, 0, 0, -1, 0, 150)" gradientUnits="userSpaceOnUse"><stop offset="0" stop-color="#006fab"/><stop offset="1" stop-color="#48a6dd"/></linearGradient><linearGradient id="linear-gradient-8" x1="182.86" y1="57.77" x2="201.41" y2="57.77" gradientTransform="matrix(1, 0, 0, -1, 0, 150)" gradientUnits="userSpaceOnUse"><stop offset="0" stop-color="#fcef44"/><stop offset="0.06" stop-color="#fcde32"/><stop offset="0.13" stop-color="#fcd220"/><stop offset="0.2" stop-color="#fdca15"/><stop offset="0.28" stop-color="#fdc712"/><stop offset="0.67" stop-color="#f39140"/><stop offset="0.89" stop-color="#ed683c"/><stop offset="1" stop-color="#e93f3a"/></linearGradient><linearGradient id="linear-gradient-9" x1="156.16" y1="57.8" x2="174.71" y2="57.8" xlink:href="#linear-gradient-8"/><linearGradient id="linear-gradient-10" x1="117" y1="46.85" x2="153.22" y2="46.85" xlink:href="#linear-gradient-7"/><linearGradient id="linear-gradient-11" x1="80.8" y1="46.85" x2="117.02" y2="46.85" xlink:href="#linear-gradient-7"/><linearGradient id="linear-gradient-12" x1="302.4" y1="43.32" x2="329.19" y2="25.92" gradientTransform="matrix(1, 0, 0, -1, 0, 150)" gradientUnits="userSpaceOnUse"><stop offset="0" stop-color="#2e6db6"/><stop offset="1" stop-color="#5ab0e2"/></linearGradient><linearGradient id="linear-gradient-13" x1="305.22" y1="47.65" x2="332" y2="30.26" xlink:href="#linear-gradient-12"/><linearGradient id="linear-gradient-14" x1="309.57" y1="54.36" x2="336.36" y2="36.97" xlink:href="#linear-gradient-12"/><linearGradient id="linear-gradient-15" x1="72.03" y1="30" x2="72.03" y2="6.19" gradientTransform="matrix(1, 0, 0, -1, 0, 150)" gradientUnits="userSpaceOnUse"><stop offset="0" stop-color="#ee2e7c"/><stop offset="1" stop-color="#922a8e"/></linearGradient><linearGradient id="linear-gradient-16" x1="58.98" y1="37.13" x2="75.76" y2="26.23" xlink:href="#linear-gradient-12"/><linearGradient id="linear-gradient-17" x1="80.66" y1="34.82" x2="93.19" y2="26.68" gradientTransform="matrix(1, 0, 0, -1, 0, 150)" gradientUnits="userSpaceOnUse"><stop offset="0" stop-color="#f89521"/><stop offset="1" stop-color="#f8ed34"/></linearGradient></defs><title>Old_Logo_Summer_NOT_OPTIMIZED</title><polygon class="cls-1" points="63.3 18.5 63.3 18.5 35.6 33.6 41.9 34.5 33.3 35.2 19.4 41.7 40.2 40.3 59.9 27.8 65.1 48.3 73.3 56.9 63.3 18.5"/><path class="cls-2" d="M58.6,24.3l-3,5.3c-.7,1.1-1.2,2.3-1.8,3.4-.1.2-.3.5-.4.7-.5,1-1,2-1.5,3.1-.7,1.5-1.3,3-2,4.6a.1.1,0,0,1-.1.1l-1.2,3.3a8.8,8.8,0,0,0-.5,1.5c-.3.8-.6,1.6-.9,2.5-.2.6-.3,1.1-.5,1.7h0l-.3.9c-.3,1-.6,2-.9,3.1h0a18.66,18.66,0,0,1-.7,2.2c-.4,1.7-.8,3.3-1.2,5,0,.2-.1.3-.1.5-.3,1.5-.7,3-1,4.5a4.25,4.25,0,0,0-.2,1.1c-.2,1.4-.5,2.7-.7,4.1-.1.5-.2,1.1-.3,1.6-.2,1-.4,2.1-.5,3.1-.4,2.8-.8,5.6-1.1,8.3v.3c-.2,1.5-.4,3-.6,4.4,0,.3-.1.6-.1.9-.1,1.9-.3,3.7-.4,5.5v.2c-.1,1.2-.2,2.4-.3,3.5h0c-.2,2.2-.4,4.4-.4,6.5h0v.2c-.1,1.7-.1,3.4-.2,5.1-.1,1.5-.1,2.9-.2,4.3-.1,1.6-.1,3-.1,4.4v7.3h0s10.2,2,23.1-3.3c-.1-.3-.8-3.5-.9-3.8-.3-1.2-.7-2.4-1-3.7-.2-.9-.4-1.8-.6-2.8-.2-1.2-.5-2.5-.7-3.8s-.5-2.6-.8-4a2.35,2.35,0,0,0-.2-.8c-.1-.8-.3-1.5-.4-2.3l-.3-2.4c0-.2-.1-.5-.1-.7-.2-1.4-.4-2.8-.5-4.2v-.1l-.6-5.1a8.6,8.6,0,0,1-.1-1.6h0c-.1-1.2-.1-2.4-.2-3.6v-.5c-.1-1.6-.2-3.3-.3-4.9v-1h0V68.2h0c0-.6.1-1.2.1-1.9s.1-1.6.2-2.3v-.3c.1-1.8.2-3.5.4-5.3a3.59,3.59,0,0,1,.2-1.1c.2-1.3.4-2.7.6-4v-.1c.1-.8.2-1.6.3-2.3s.3-1.6.5-2.4c.1-.5.2-1.1.3-1.6h0c.2-1,.5-2.1.7-3.1a2.35,2.35,0,0,0,.2-.8h0q.75-2.7,1.5-5.1a23.4,23.4,0,0,1,.9-2.4c.1-.4.3-.7.4-1.1.3-.8.6-1.5.9-2.2.1-.2.2-.3.2-.5.5-1,.9-2,1.3-2.9Z"/><path class="cls-3" d="M57.4,110.3l-.2.3L53,107.5l-3,4-4-3-3,4.1-3.8-2.8-1.4,1.9c.1-1.6.1-3.3.2-5.1v-.2h0l.6-.8,3.8,2.8,3-4.1,4,3,3-4,4.2,3.1.1-.1C56.9,107.7,57.1,109,57.4,110.3Z"/><path class="cls-3" d="M55.1,95.9c.2,1.4.4,2.8.5,4.2L51.5,97l-3,4-4-3-3,4.1-3-2.3h0c.1-1.2.2-2.3.3-3.5l2.1,1.6,3-4.1,4,3,3-4,4.2,3.1Z"/><path class="cls-3" d="M54.1,84.9v.5c.1,1.2.1,2.4.2,3.6h0l-.5.5L50,86l-3.4,3.6-3.7-3.4-3.5,3.7-.3-.2c.2-1.5.4-3,.6-4.4l3-3.3,3.7,3.4,3.4-3.6,3.8,3.6Z"/><path class="cls-3" d="M53.7,75v4h0l-.2.2-3.4-3.9-3.8,3.3L43,74.8l-2.1,1.8c.2-1,.3-2.1.5-3.1.1-.5.2-1.1.3-1.6l1.6-1.4,3.3,3.8L50.4,71Z"/><path class="cls-3" d="M54.1,64.2c-.1.8-.1,1.6-.2,2.3s-.1,1.2-.1,1.9l-2.5-2.9-3.8,3.3-3.1-3.5-1.7,1.5c.3-1.5.7-3,1-4.5,0-.1.1-.3.1-.4l.9-.7,3.1,3.5,3.8-3.3Z"/><path class="cls-3" d="M55.3,53.3v.1c-.2,1.3-.4,2.6-.6,4l-1.8-2.3L49,58.3l-3.1-4-.3.2c.3-1,.6-2.1.9-3.1l.3-.9L49.5,54l3.9-3.1Z"/><path class="cls-3" d="M57.4,43.2h0c-.1.3-.1.5-.2.8-.2,1-.4,2-.7,3.1l-1.2-1.7-4.1,3L48.7,45l1.2-3.3a.1.1,0,0,1,.1-.1l1.9,2.6,4.1-3Z"/><path class="cls-3" d="M60.2,34.6c-.1.4-.3.7-.4,1.1a16.88,16.88,0,0,0-.8,2.4l-1.4-2L53.5,39,52,36.9a29.62,29.62,0,0,1,1.5-3.1l.8,1.1L58.4,32Z"/><polygon class="cls-4" points="74.6 19.3 63.3 18.5 71.4 26.4 92.5 37.5 96.7 37.7 92.2 32.3 101.9 38 104.4 38.2 107.6 38.3 122.9 39.2 74.6 19.3"/><polygon class="cls-5" points="63.3 18.5 62.4 27.3 64.7 29.1 71.9 42.4 73.5 37.5 74.6 45.4 78.4 49.5 106.6 61 63.3 18.5"/><polygon class="cls-6" points="63.3 18.5 2.3 0 16.1 10.4 35.3 14.2 19.4 12.8 26.7 18.2 46.8 23.2 62.7 24.9 63.3 18.5"/><polygon class="cls-7" points="57.1 27 29.6 32.5 0 25.7 63.3 18.5 62.6 25.2 62.4 27.3 57.1 27"/><path class="cls-8" d="M47.5,121.5c-2.8.9-5,.8-9.4.3a6.6,6.6,0,0,0-1.4.1,28.44,28.44,0,0,0-3.5,1.3,6.23,6.23,0,0,0-.8,10.9,83.84,83.84,0,0,0,18.7,9h0l.9.3c11.6,3.7,26.8,5.6,44.8,1.7a42.29,42.29,0,0,0,8.5-2.8c4-1.8,2.9-7.7-1.4-8.2-7.1-.8-16.9-3.6-27.7-11.7a28.89,28.89,0,0,0-18.5-5.7h-.1a9.26,9.26,0,0,0-4.8,1.2C51.4,118.7,49.6,120.8,47.5,121.5Z"/><path class="cls-9" d="M198.1,110.4h0a.89.89,0,0,1-.8-1L204,57a.89.89,0,0,1,1-.8h0a.89.89,0,0,1,.8,1l-6.7,52.3A.92.92,0,0,1,198.1,110.4Z"/><path class="cls-10" d="M213.9,67.8c-8.7-4.8-20-2.7-20.5-2.6L206,47.7Z"/><path class="cls-11" d="M206,47.7,193.4,65.2h0c-6.1-3.4-13.5-3.4-17.5-3-.5,0-.7-.6-.2-.8Z"/><path class="cls-12" d="M231.2,69c-8.3-3-17.3-1.2-17.3-1.2L206,47.7l25.6,20.5A.46.46,0,0,1,231.2,69Z"/><circle class="cls-9" cx="206.1" cy="47.5" r="1"/><path class="cls-13" d="M209.1,102.7a30.61,30.61,0,0,0-2.4-12,29.8,29.8,0,0,0-6.6-9.7,31.34,31.34,0,0,0-9.8-6.6,30.61,30.61,0,0,0-12-2.4,29.91,29.91,0,0,0-12,2.4,31.34,31.34,0,0,0-9.8,6.6,30.9,30.9,0,0,0-6.6,9.7,29.91,29.91,0,0,0-2.4,12,30.61,30.61,0,0,0,2.4,12,29.8,29.8,0,0,0,6.6,9.7,31.06,31.06,0,0,0,9.8,6.5,29.91,29.91,0,0,0,12,2.4,30.61,30.61,0,0,0,12-2.4,31.64,31.64,0,0,0,9.8-6.5,30.9,30.9,0,0,0,6.6-9.7A29.91,29.91,0,0,0,209.1,102.7Zm-16.7,6.1a15.82,15.82,0,0,1-8,8.6,15,15,0,0,1-12.2,0,14.19,14.19,0,0,1-4.8-3.5,16.4,16.4,0,0,1-3.2-5.1,16.1,16.1,0,0,1,0-12.2,15.3,15.3,0,0,1,3.2-5,17,17,0,0,1,4.8-3.5,15,15,0,0,1,12.2,0,14.19,14.19,0,0,1,4.8,3.5,17.13,17.13,0,0,1,3.2,5,15.44,15.44,0,0,1,1.2,6.1A20.65,20.65,0,0,1,192.4,108.8Z"/><path class="cls-14" d="M224,73.6l-21.4,58H219l3-8h17.9l3,8h16.4l-21.4-58Zm2.2,36.5,4.6-15.3,4.6,15.3Z"/><rect class="cls-13" x="264.1" y="122.9" width="15.8" height="8.7"/><polygon class="cls-13" points="247.2 73.6 247.2 86.9 248.2 88 264.1 88 264.1 95.4 279.9 95.4 279.9 88 295.8 88 296.8 86.9 296.8 73.6 247.2 73.6"/><path class="cls-15" d="M204.6,81.9h0l-.3-.1a62.17,62.17,0,0,0-8.8-.8c-10.7,0-14.1,4-14.3,4.2a3,3,0,0,1-2.4.8,3.45,3.45,0,0,1-2.4-.8c-.2-.2-3.6-4.2-14.3-4.2a50.2,50.2,0,0,0-8.8.8l-.3.1h0a15.8,15.8,0,0,0,0,5.2,19.86,19.86,0,0,0,5.7,11.7c5.2,5.2,15.6.8,17-5.3,0,0,.9-3.6,3.1-3.7,2.3.1,3.1,3.7,3.1,3.7,1.4,6.1,11.8,10.5,17,5.3a19.6,19.6,0,0,0,5.7-11.7A15.8,15.8,0,0,0,204.6,81.9ZM172.5,96.2s-4.7,6.3-11.6,1.9a9.9,9.9,0,0,1-4.6-10.3,2.6,2.6,0,0,1,1.8-2.1c2.6-.7,8.6-1.6,13.1.6a6.78,6.78,0,0,1,2.8,2.5C174.9,90.3,175.3,92.8,172.5,96.2ZM196.6,98c-6.9,4.4-11.6-1.9-11.6-1.9-2.8-3.4-2.4-5.9-1.5-7.5a6.78,6.78,0,0,1,2.8-2.5c4.6-2.2,10.5-1.3,13.1-.6a2.45,2.45,0,0,1,1.8,2.1A9.76,9.76,0,0,1,196.6,98Z"/><path class="cls-16" d="M196.6,98a8.86,8.86,0,0,1-5,1.6h0a7.8,7.8,0,0,1-2.2-.3,8.86,8.86,0,0,1-1.7-.8,9.85,9.85,0,0,1-2.8-2.3l-.3-.3c-2.5-3.2-2.1-5.6-1.3-7.1a6.78,6.78,0,0,1,2.8-2.5,17.14,17.14,0,0,1,5.5-1.4,36.08,36.08,0,0,1,4.7.1,11.8,11.8,0,0,1,2,.4c.4.1.7.2,1,.3a2.64,2.64,0,0,1,1.8,2.1A9.35,9.35,0,0,1,196.6,98Z"/><path class="cls-16" d="M172.5,96.2s-4.6,6.1-11.4,2c-.1,0-.1-.1-.2-.1a10.07,10.07,0,0,1-2.8-2.6,10.24,10.24,0,0,1-1.8-7.8,2.6,2.6,0,0,1,1.8-2.1,24.28,24.28,0,0,1,6.8-.8,13.92,13.92,0,0,1,4.4.7,10.66,10.66,0,0,1,1.9.7,6.78,6.78,0,0,1,2.8,2.5C174.9,90.3,175.3,92.8,172.5,96.2Z"/><path class="cls-17" d="M196.6,98a8.86,8.86,0,0,1-5,1.6h0a7.8,7.8,0,0,1-2.2-.3,8.86,8.86,0,0,1-1.7-.8,9.85,9.85,0,0,1-2.8-2.3l-.3-.3c-2.5-3.2-2.1-5.6-1.3-7.1a6.78,6.78,0,0,1,2.8-2.5,17.14,17.14,0,0,1,5.5-1.4,36.08,36.08,0,0,1,4.7.1,11.8,11.8,0,0,1,2,.4c.4.1.7.2,1,.3a2.64,2.64,0,0,1,1.8,2.1A9.35,9.35,0,0,1,196.6,98Z"/><path class="cls-18" d="M172.5,96.2s-4.6,6.1-11.4,2c-.1,0-.1-.1-.2-.1a10.07,10.07,0,0,1-2.8-2.6,10.24,10.24,0,0,1-1.8-7.8,2.6,2.6,0,0,1,1.8-2.1,24.28,24.28,0,0,1,6.8-.8,13.92,13.92,0,0,1,4.4.7,10.66,10.66,0,0,1,1.9.7,6.78,6.78,0,0,1,2.8,2.5C174.9,90.3,175.3,92.8,172.5,96.2Z"/><path class="cls-19" d="M196.5,85l-8.7,13.5a9.85,9.85,0,0,1-2.8-2.3l-.3-.3L191.8,85A24.54,24.54,0,0,1,196.5,85Z"/><path class="cls-19" d="M200.4,86.1l-8.7,13.5h0a7.8,7.8,0,0,1-2.2-.3l9-13.9c.4.1.7.2,1,.3A1.8,1.8,0,0,1,200.4,86.1Z"/><path class="cls-19" d="M169.3,85.5l-8.2,12.6c-.1,0-.1-.1-.2-.1a10.07,10.07,0,0,1-2.8-2.6l6.8-10.6A21.27,21.27,0,0,1,169.3,85.5Z"/><circle class="cls-9" cx="154.8" cy="83.8" r="1.2"/><circle class="cls-9" cx="202.8" cy="83.8" r="1.2"/><path class="cls-20" d="M235.2,106.6"/><path class="cls-21" d="M247.9,87.6c-1.2,1.4-2.4,2.8-3.5,4.1l.4,1.1c1.3-1.6,2.6-3.3,4.1-4.9h-.7Z"/><path class="cls-21" d="M296.3,83.4c-.3-4-4.3-7.4-12.1-10.2a24.2,24.2,0,0,0-17.6.5h3.2a22.78,22.78,0,0,1,14.1.5c7.4,2.6,11.3,5.8,11.5,9.4.4,6.5-11.4,12.6-11.5,12.6l.5.9C284.7,96.7,296.7,90.6,296.3,83.4Z"/><rect class="cls-22" x="281.93" y="95.81" width="2.7" height="2.2" transform="translate(-11.44 149.62) rotate(-29.03)"/><rect class="cls-13" x="281.4" y="96.93" width="0.8" height="1.6" transform="translate(-12.03 149) rotate(-29.03)"/><path class="cls-23" d="M150.6,70.9c-6.6-7.2-12.8-10-18.2-8.5-8.9,2.5-13.5,15.9-15.1,22l1.7-2.1c2-6.5,6.4-16.9,13.7-19,5.1-1.4,10.9,1.3,17.2,8.2,8.2,8.9,11.9,17.5,10.8,25.4a22.91,22.91,0,0,1-7.5,13.6v1.4c2.8-2.4,7.5-7.4,8.5-14.8C162.8,88.9,159.1,80,150.6,70.9Z"/><path class="cls-13" d="M87.7,66.2l10.8-.6c.9,0,1.7,1.4,1.7,2.3H86.6v-.6A1.11,1.11,0,0,1,87.7,66.2Z"/><path class="cls-13" d="M135.8,65.5l10.8.6a1.11,1.11,0,0,1,1.1,1.1v.6H134.1C134.1,66.9,134.9,65.5,135.8,65.5Z"/><path class="cls-24" d="M145.4,67.3H134.2a6.68,6.68,0,0,0-5.2,2.5L117,84.7v34.7l14-17.5v31.3a5.8,5.8,0,0,0,5.8,5.8H142a11.14,11.14,0,0,0,11.1-11.1V74.7A7.45,7.45,0,0,0,145.4,67.3Z"/><path class="cls-25" d="M88.6,67.3H99.8a6.68,6.68,0,0,1,5.2,2.5l12,14.9v34.7l-14-17.5v31.3a5.8,5.8,0,0,1-5.8,5.8H92a11.14,11.14,0,0,1-11.1-11.1V74.7A7.45,7.45,0,0,1,88.6,67.3Z"/><circle class="cls-23" cx="92.1" cy="81.1" r="5.3"/><circle class="cls-13" cx="92.1" cy="81.1" r="4.2"/><circle class="cls-23" cx="142.4" cy="104.6" r="5.3"/><circle class="cls-13" cx="142.4" cy="104.6" r="4.2"/><ellipse class="cls-13" cx="142.2" cy="76.4" rx="2.4" ry="2.5"/><path class="cls-13" d="M143.9,87.6a2.61,2.61,0,0,0,0-3.5,2.3,2.3,0,0,0-3.4,0,2.61,2.61,0,0,0,0,3.5A2.3,2.3,0,0,0,143.9,87.6Z"/><ellipse class="cls-13" cx="136.8" cy="81.4" rx="2.4" ry="2.5"/><ellipse class="cls-13" cx="147.5" cy="81.4" rx="2.4" ry="2.5"/><path class="cls-13" d="M96.2,103.1H93.7a.22.22,0,0,1-.2-.2v-2.5a1.32,1.32,0,0,0-1.3-1.3h0a1.32,1.32,0,0,0-1.3,1.3v2.5a.22.22,0,0,1-.2.2H88.2a1.32,1.32,0,0,0-1.3,1.3h0a1.32,1.32,0,0,0,1.3,1.3h2.5a.22.22,0,0,1,.2.2v2.5a1.32,1.32,0,0,0,1.3,1.3h0a1.32,1.32,0,0,0,1.3-1.3v-2.5a.22.22,0,0,1,.2-.2h2.5a1.32,1.32,0,0,0,1.3-1.3h0A1.26,1.26,0,0,0,96.2,103.1Z"/><path class="cls-21" d="M234.3,106.7c-.2.3-19.7,31.7-72.7,35.6-35.5,2.7-42-3.2-40.4-8.5,1.1-3.5,5.9-7.2,9.9-9.8v-1.2c-4.5,2.8-10.3,7.1-11.7,11.5-2.6,8.5,12.8,11.6,41.6,9.3,1.8-.1,3.6-.3,5.3-.5,47.4-5.6,66.5-32.6,68.4-35.6l-.3-1Z"/><path class="cls-8" d="M76.1,128.7a42.1,42.1,0,0,0,27.2,7.7s1.8,6.2-16.3,6.4S76.1,128.7,76.1,128.7Z"/><g class="cls-26"><path class="cls-13" d="M266.82,108.58h6.6a3.32,3.32,0,0,1,.09.55,4.44,4.44,0,0,1,0,.63,7.53,7.53,0,0,1-.39,2.45,5.72,5.72,0,0,1-1.25,2.05,6.19,6.19,0,0,1-2.16,1.49,7.43,7.43,0,0,1-2.88.52,7.25,7.25,0,0,1-2.76-.52,6.79,6.79,0,0,1-2.26-1.47,7,7,0,0,1-2.09-5,6.92,6.92,0,0,1,4.35-6.51,7.63,7.63,0,0,1,5.69,0,6.43,6.43,0,0,1,2.21,1.56L270.26,106a4.66,4.66,0,0,0-1.47-1.06,4.57,4.57,0,0,0-1.94-.37,4.73,4.73,0,0,0-1.75.33,4.35,4.35,0,0,0-1.44.93,4.29,4.29,0,0,0-1,1.46,5.11,5.11,0,0,0,0,3.82,4.27,4.27,0,0,0,1,1.45,4.37,4.37,0,0,0,1.45.94,4.72,4.72,0,0,0,1.77.33,4.67,4.67,0,0,0,1.82-.32,4.1,4.1,0,0,0,1.27-.8,3.18,3.18,0,0,0,.65-.85,5,5,0,0,0,.42-1.16h-4.23Z"/><path class="cls-13" d="M279.4,102.5h2.9L287.36,116h-2.81l-1.11-3.22h-5.19L277.14,116h-2.8Zm3.22,7.92-1.21-3.36-.49-1.64h-.15l-.49,1.64-1.2,3.36Z"/><path class="cls-13" d="M288.94,102.5h2.5l4.12,7.13h.15l4.12-7.13h2.52V116h-2.52v-6.64l.15-2.25h-.15l-3.43,6h-1.52l-3.44-6h-.15l.15,2.25V116h-2.5Z"/></g><path class="cls-27" d="M305.1,102.5h2.5V116h-2.5Z"/><path class="cls-28" d="M310.4,102.5h3l5.4,9h.2l-.2-2.6v-6.4h2.5V116h-2.7l-5.7-9.5h-.2l.2,2.6V116h-2.5V102.5Z"/><path class="cls-29" d="M330.4,108.6H337c0,.2.1.3.1.5v.6a6.05,6.05,0,0,1-.4,2.4,8.17,8.17,0,0,1-1.2,2,7.12,7.12,0,0,1-2.2,1.5,6.55,6.55,0,0,1-2.9.5,8.68,8.68,0,0,1-2.8-.5,5.74,5.74,0,0,1-2.3-1.5,8.55,8.55,0,0,1-1.5-2.2,6.71,6.71,0,0,1-.6-2.8,6.39,6.39,0,0,1,.6-2.8,7.12,7.12,0,0,1,1.5-2.2,7.63,7.63,0,0,1,2.3-1.5,6.63,6.63,0,0,1,2.8-.5,6.53,6.53,0,0,1,2.9.6,6,6,0,0,1,2.2,1.6l-1.7,1.7a4.18,4.18,0,0,0-1.5-1.1,5.33,5.33,0,0,0-1.9-.4,4.67,4.67,0,0,0-1.7.3,3.39,3.39,0,0,0-1.4.9,5.6,5.6,0,0,0-1,1.5,5.85,5.85,0,0,0-.4,1.9,4.06,4.06,0,0,0,.4,1.9,4,4,0,0,0,1,1.5,3.77,3.77,0,0,0,1.5.9,5.23,5.23,0,0,0,1.8.3,4.84,4.84,0,0,0,1.8-.3,5.67,5.67,0,0,0,1.3-.8,1.46,1.46,0,0,0,.6-.9c.1-.4.3-.7.4-1.2h-4.2v-1.9Z"/><path class="cls-13" d="M77.1,121.3a50.77,50.77,0,0,1-16.2,18.3,17.2,17.2,0,0,1-4.7-6l-.3-.6h0a18.28,18.28,0,0,1-1.6-6.6v-.8a8.6,8.6,0,0,1,.1-1.6h0c.9-8.4,17.8-5.3,21.9-4.5a2.54,2.54,0,0,0,.2.7A4.07,4.07,0,0,0,77.1,121.3Z"/><path class="cls-13" d="M85.4,112.3a32.9,32.9,0,0,1-4.6,4.5A2.5,2.5,0,0,0,79,116a18.4,18.4,0,0,0-7.3-8.8h.9a12.75,12.75,0,0,1,2,.1h0a18.12,18.12,0,0,1,9.6,4.1A12.49,12.49,0,0,1,85.4,112.3Z"/><path class="cls-13" d="M90.9,126.8a17,17,0,0,1-1.3,5.6,19.45,19.45,0,0,1-7.2,8.6,2.19,2.19,0,0,0-.5.3c1.5-2.8,2.6-10-1.1-19.5a2.87,2.87,0,0,0,1.1-2A13.66,13.66,0,0,1,90.9,126.8Z"/><path class="cls-30" d="M81.8,141.4h0a16.58,16.58,0,0,1-3.3,1.5,19.74,19.74,0,0,1-5.9,1,18.19,18.19,0,0,1-11.8-4.3A50.77,50.77,0,0,0,77,121.3a5.45,5.45,0,0,0,.4-1L80,120c.3.6.5,1.2.8,1.8C84.5,131.4,83.3,138.6,81.8,141.4Z"/><path class="cls-31" d="M79.7,117.7h0l-2.5,1.9a6.59,6.59,0,0,0-.9-.2c-4.1-.9-21-3.9-21.9,4.5a18.3,18.3,0,0,1,17.4-16.7,19,19,0,0,1,7.3,8.8C79.3,116.5,79.5,117.1,79.7,117.7Z"/><path class="cls-32" d="M91,125.5a5.7,5.7,0,0,1-.1,1.3,13,13,0,0,0-9-6.9h0a12.22,12.22,0,0,0-3.3-.2l-.3-.8a15.07,15.07,0,0,0,1.4-1.1h0a10.63,10.63,0,0,1,1.1-.9,32.9,32.9,0,0,0,4.6-4.5A18.83,18.83,0,0,1,91,124.7Z"/><path class="cls-33" d="M81.9,119.9h0a3.09,3.09,0,0,1-1.1,2l-.6.3a2.86,2.86,0,0,1-3.1-.9,4.13,4.13,0,0,1-.7-1.1,6.37,6.37,0,0,1-.2-.7,3,3,0,0,1,1.7-3.3,1.73,1.73,0,0,1,1-.1,2.69,2.69,0,0,1,1.8.8,3.39,3.39,0,0,1,.9,1.4A2.22,2.22,0,0,1,81.9,119.9Z"/><path class="cls-8" d="M57.3,140.7a20.88,20.88,0,0,1,14.8-.8c8.1,2.9,14.1-2.3,15.7-3.1.4-.2.6.2.7.8a6.3,6.3,0,0,1-6.4,6.8H65.6a10.92,10.92,0,0,1-8.3-3.7Z"/><path class="cls-13" d="M64.7,111"/><path class="cls-13" d="M63.7,114.2"/><path class="cls-34" d="M51.4,117.3"/></svg>