<svg xmlns="http://www.w3.org/2000/svg" xmlns:xlink="http://www.w3.org/1999/xlink" viewBox="0 0 72.45 73.51"><defs><style>.cls-1{fill:#fff;}.cls-2{fill:url(#linear-gradient);}.cls-3{fill:url(#linear-gradient-2);}.cls-4{fill:#bababa;}</style><linearGradient id="linear-gradient" x1="35.27" y1="52.44" x2="82.13" y2="22" gradientUnits="userSpaceOnUse"><stop offset="0" stop-color="#006eaa"/><stop offset="1" stop-color="#00adff"/></linearGradient><linearGradient id="linear-gradient-2" x1="-9.69" y1="22" x2="37.18" y2="52.44" gradientUnits="userSpaceOnUse"><stop offset="0" stop-color="#0a6dcc"/><stop offset="1" stop-color="#39b5ff"/></linearGradient></defs><title>Asset 6</title><g id="Layer_2" data-name="Layer 2"><g id="Layer_1-2" data-name="Layer 1"><path class="cls-1" d="M6.91.62,17.67,0c.93,0,1.68,1.37,1.68,2.3H5.8V1.73A1.11,1.11,0,0,1,6.91.62Z"/><path class="cls-1" d="M55,0,65.75.62a1.11,1.11,0,0,1,1.11,1.11V2.3H53.31C53.31,1.37,54.06,0,55,0Z"/><path class="cls-2" d="M64.63,1.78H53.45a6.65,6.65,0,0,0-5.18,2.47l-12,14.94V53.92l14-17.51V67.69a5.82,5.82,0,0,0,5.82,5.82h5.24A11.12,11.12,0,0,0,72.45,62.39V9.19A7.62,7.62,0,0,0,64.63,1.78Z"/><path class="cls-3" d="M7.82,1.78H19a6.65,6.65,0,0,1,5.18,2.47l12,14.94V53.92l-14-17.51V67.69a5.82,5.82,0,0,1-5.82,5.82H11.12A11.12,11.12,0,0,1,0,62.39V9.19A7.62,7.62,0,0,1,7.82,1.78Z"/><circle class="cls-4" cx="11.33" cy="15.6" r="5.29"/><circle class="cls-1" cx="11.33" cy="15.6" r="4.25"/><circle class="cls-4" cx="61.56" cy="39.02" r="5.29"/><circle class="cls-1" cx="61.56" cy="39.02" r="4.25"/><ellipse class="cls-1" cx="61.36" cy="10.87" rx="2.41" ry="2.49"/><path class="cls-1" d="M63.07,22.09a2.55,2.55,0,0,0,0-3.53,2.36,2.36,0,0,0-3.42,0,2.55,2.55,0,0,0,0,3.53A2.36,2.36,0,0,0,63.07,22.09Z"/><ellipse class="cls-1" cx="56.05" cy="15.86" rx="2.41" ry="2.49"/><ellipse class="cls-1" cx="66.67" cy="15.86" rx="2.41" ry="2.49"/><path class="cls-1" d="M15.41,37.52H12.87a.21.21,0,0,1-.21-.21V34.78a1.27,1.27,0,0,0-1.27-1.27h0a1.27,1.27,0,0,0-1.27,1.27v2.54a.21.21,0,0,1-.21.21H7.37A1.27,1.27,0,0,0,6.1,38.79h0a1.27,1.27,0,0,0,1.27,1.27H9.91a.21.21,0,0,1,.21.21v2.54a1.27,1.27,0,0,0,1.27,1.27h0a1.27,1.27,0,0,0,1.27-1.27V40.28a.21.21,0,0,1,.21-.21h2.54a1.27,1.27,0,0,0,1.27-1.27h0A1.27,1.27,0,0,0,15.41,37.52Z"/></g></g></svg>