<svg xmlns="http://www.w3.org/2000/svg" viewBox="0 0 432.21 450.6" fill="#6798eb"><path d="M297.4,266.31a68.68,68.68,0,0,1-10.78,9.57c-1.56,1.11-.06,3.71,1.51,2.59a72.31,72.31,0,0,0,11.38-10c1.3-1.42-.81-3.55-2.12-2.12ZM286.56,268.88a43.38,43.38,0,0,0,11.54,13.87c1.5,1.18,3.64-.93,2.12-2.12a41.34,41.34,0,0,1-11.07-13.26c-.9-1.71-3.49-.19-2.59,1.51ZM92.77,108.12a64.91,64.91,0,0,1-.49-13.9l-1.1,1.45c2.11-.34,4,4.28,6.71,4.34A4.61,4.61,0,0,0,101,98.58c2.26-2,4.1-4.9,6-7.2l-2.56-1.06-.21,18.2a1.5,1.5,0,0,0,3,0l.21-18.2a1.52,1.52,0,0,0-2.56-1.06c-1.66,2-3.31,4-5,6s-2.6,1.62-4.23,0-3-2.81-5.31-2.43a1.52,1.52,0,0,0-1.1,1.45,68.51,68.51,0,0,0,.59,14.7c.28,1.9,3.17,1.09,2.89-.8ZM154.11,206.34c-5.33-9-19.39,1.21-13.24,9.6,2.46,3.35,7.35,4.75,10.9,2.28a8.26,8.26,0,0,0,2.45-10.7c-.94-1.69-3.53-.17-2.59,1.51,2.83,5.07-3.78,9.92-7.85,5.71-4.89-5.06,4.34-12.67,7.74-6.9a1.5,1.5,0,0,0,2.59-1.51ZM306.48,94c-4,3.54-2.35,10.38,3.39,10.63,6.3.27,8.56-8.59,6.89-13.4s-7.4-7.44-12.22-6.46c-6.39,1.3-9.89,7.79-9.79,13.9,0,1.93,3,1.93,3,0-.09-5.91,4.32-12.63,11-10.82a7.29,7.29,0,0,1,5.38,5.08,9.58,9.58,0,0,1-.52,5.31q-.7,3.11-4.34,3.29-3.72-2.94-.67-5.4c1.44-1.29-.69-3.41-2.12-2.12ZM223.58,63.93c3.82-.93,8.11-2.08,11.92-.49,1.86.78,3.76,2.14,4.29,4.25s-.7,4.78-2.94,5.16c-6,1-2.56-7.44-1.27-9.23,2.22-3.07,4.82-5.94,7.23-8.86,1.21-1.48-.9-3.62-2.12-2.12C237,57.17,229.77,63.28,230.36,69.8c.38,4.28,4.36,7.52,8.53,5.45a7.33,7.33,0,0,0,2.51-10.95C237.08,58.2,229,59.51,222.78,61c-1.87.46-1.08,3.35.8,2.89ZM155,281.89c-2.44-2.43-6-2-8.59.12-3.35,2.81-4.65,13.55-10.45,11.47-1.82-.65-2.6,2.24-.8,2.89,3.15,1.13,6.18-.44,8.14-3,1.75-2.28,5-14,9.58-9.38a1.5,1.5,0,0,0,2.12-2.12ZM160.33,290.94a6,6,0,0,0-8.13-1.27c-4.11,2.53-4.59,10.54-9.93,10.85-1.92.11-1.93,3.11,0,3a8.55,8.55,0,0,0,6.7-4.14c1.25-1.83,5.35-11.43,8.76-6.94,1.15,1.52,3.76,0,2.59-1.51ZM33.55,391.1c1.73,3.12,4.12,6.9,8,7.48a7.75,7.75,0,0,0,4.26-.75c1.08-.46,2.65-1.8,3.84-1.86,3.47-.17,3.36,3.13,3.67,5.13.41,2.66,1,6.1,3.92,7.19a5.24,5.24,0,0,0,3.5,0,16.51,16.51,0,0,0,3.83-2.18l1.26-.87q3.34-2.78,7.5,1.23c-.41,1.88,2.49,2.69,2.89.8a5.48,5.48,0,0,0-5.08-6.87,10,10,0,0,0-5.52,1.44c-1.28.68-2.46,2-3.82,2.55-3.29,1.21-5-.58-5.53-3.8s-1.11-6.89-4.81-7.57a7.47,7.47,0,0,0-4.74,1c-5.57,2.71-8,.19-10.55-4.43-.94-1.69-3.53-.18-2.59,1.51ZM222.69,259.54a41.76,41.76,0,0,1,1.1,12c-.1,1.93,2.9,1.92,3,0a44.64,44.64,0,0,0-1.2-12.83c-.45-1.88-3.35-1.08-2.89.8ZM217.89,260a29.11,29.11,0,0,1,12.63-2c1.93.12,1.92-2.88,0-3a31.13,31.13,0,0,0-13.43,2.07c-1.78.69-1,3.59.8,2.89ZM191.85,417.86v13.05a1.5,1.5,0,0,0,3,0V417.86a1.5,1.5,0,0,0-3,0ZM193.76,419c4-2.2,9-.26,9.9,4.42,1,5.78-6.12,6.53-10.31,6.77-1.92.11-1.93,3.11,0,3,3.46-.2,8.1-.57,11-2.72,2.38-1.78,2.83-5.31,2.21-8-1.47-6.46-8.66-9.13-14.28-6-1.69.93-.18,3.52,1.51,2.59ZM354.58.49a103.81,103.81,0,0,1-11.1,11.09l2.12,2.12L356.7,2.61A1.5,1.5,0,0,0,354.58.49l-11.1,11.09c-1.38,1.38.67,3.37,2.12,2.12A103.81,103.81,0,0,0,356.7,2.61C358,1.16,355.84-1,354.58.49ZM420.32,270.14a1.5,1.5,0,0,0,0-3,1.5,1.5,0,0,0,0,3ZM417.71,278a1.5,1.5,0,0,0,0-3,1.5,1.5,0,0,0,0,3ZM424.89,283.19a1.5,1.5,0,0,0,0-3,1.5,1.5,0,0,0,0,3ZM427.5,271.44a1.5,1.5,0,0,0,0-3,1.5,1.5,0,0,0,0,3ZM430.76,278.62a1.5,1.5,0,0,0,0-3,1.5,1.5,0,0,0,0,3ZM423.58,276.66a1.5,1.5,0,0,0,0-3,1.5,1.5,0,0,0,0,3ZM134.07,29.58v4.85a1.5,1.5,0,0,0,3,0V29.58a1.5,1.5,0,0,0-3,0v4.85a1.5,1.5,0,0,0,3,0V29.58A1.5,1.5,0,0,0,134.07,29.58ZM134.07,44v4.85a1.5,1.5,0,0,0,3,0V44a1.5,1.5,0,0,0-3,0v4.85a1.5,1.5,0,0,0,3,0V44A1.5,1.5,0,0,0,134.07,44ZM145.19,37.71h-4.85a1.5,1.5,0,0,0,0,3h4.85a1.5,1.5,0,0,0,0-3h-4.85a1.5,1.5,0,0,0,0,3h4.85A1.5,1.5,0,0,0,145.19,37.71ZM130.78,37.71h-4.85a1.5,1.5,0,0,0,0,3h4.85a1.5,1.5,0,0,0,0-3ZM388.17,331.57c1.52,3.44,3.44,7.6,2.58,11.48a8.13,8.13,0,0,1-2.17,4.1c-1.75,1.61-9.09,1.8-6.78-3.39,1-2.19,4.76-2,6.48-1.48a23.7,23.7,0,0,1,4.29,2.05c2.7,1.48,5.37,3,8.06,4.51,1.69.94,3.2-1.65,1.51-2.59-5-2.82-12.28-8.85-18.56-7.13-4.38,1.2-6.8,6.08-3.61,9.79s8.63,3.06,11.56-.59c4.42-5.5,1.73-12.6-.78-18.27-.78-1.76-3.37-.24-2.59,1.51ZM346.13,234.58c-2.71,1.76-3.31,4.84-2.14,7.8,1.7,4.29,12.4,8.09,9.13,13.34-1,1.64,1.57,3.15,2.59,1.51,1.71-2.76,1.1-5.84-.83-8.36-1.79-2.34-12.65-8.19-7.24-11.7,1.61-1,.11-3.65-1.51-2.59ZM355.79,231.59c-2.79,1.3-3.68,4.53-2.79,7.37,1.43,4.6,9.22,6.92,8.4,12.19-.29,1.89,2.6,2.7,2.89.8a8.54,8.54,0,0,0-2.38-7.39c-1.81-2-10.11-7.8-4.6-10.37,1.75-.82.23-3.4-1.51-2.59ZM227.66,332.59a103.56,103.56,0,0,1-5,14.48c-.75,1.76,1.83,3.29,2.59,1.51a108.66,108.66,0,0,0,5.25-15.2,1.5,1.5,0,0,0-2.89-.8ZM129,152.35a103.81,103.81,0,0,1-11.1,11.09l2.12,2.12,11.1-11.09a1.5,1.5,0,0,0-2.12-2.12l-11.1,11.09c-1.38,1.38.67,3.37,2.12,2.12a103.81,103.81,0,0,0,11.1-11.09C132.41,153,130.3,150.88,129,152.35ZM309.87,396.54c-5.33-9-19.39,1.21-13.24,9.6,2.46,3.35,7.35,4.75,10.9,2.28a8.26,8.26,0,0,0,2.45-10.7c-.94-1.69-3.53-.17-2.59,1.51,2.83,5.07-3.78,9.92-7.85,5.71-4.89-5.06,4.34-12.67,7.74-6.9a1.5,1.5,0,0,0,2.59-1.51ZM31.76,80.18c-5.33-9-19.39,1.21-13.24,9.6,2.46,3.35,7.35,4.75,10.9,2.28a8.26,8.26,0,0,0,2.45-10.7c-.94-1.69-3.53-.17-2.59,1.51,2.83,5.07-3.78,9.92-7.85,5.71-4.89-5.06,4.34-12.67,7.74-6.9a1.5,1.5,0,0,0,2.59-1.51ZM314.5,174.93l6.58,11.27a1.5,1.5,0,0,0,2.59-1.51l-6.58-11.27a1.5,1.5,0,0,0-2.59,1.51ZM316.69,174.93c2.42-4,7.83-4.81,10.9-1,3.6,4.42-2.19,8.61-5.6,10.88-1.6,1.07-.1,3.66,1.51,2.59,2.89-1.93,6.67-4.56,8.09-7.86,1.15-2.68-.18-5.92-2-7.95-4.52-5-12.11-3.69-15.47,1.85-1,1.66,1.59,3.17,2.59,1.51ZM20,145.72,13.57,157.1c-.95,1.69,1.64,3.2,2.59,1.51l6.39-11.38c.95-1.69-1.64-3.2-2.59-1.51ZM21,147.63c4.65.06,8.1,4.3,6.42,8.85-2,5.41-8.45,2.54-12.21.72-1.73-.84-3.25,1.75-1.51,2.59,3.12,1.52,7.33,3.48,10.89,3,2.89-.38,5-3.12,5.83-5.75,2-6.41-2.94-12.33-9.42-12.42a1.5,1.5,0,0,0,0,3ZM303.53,321.67c-4,3.54-2.35,10.38,3.39,10.63,6.3.27,8.56-8.59,6.89-13.4s-7.4-7.44-12.22-6.46c-6.39,1.3-9.89,7.79-9.79,13.9,0,1.93,3,1.93,3,0-.09-5.91,4.32-12.63,11-10.82a7.29,7.29,0,0,1,5.38,5.08,9.58,9.58,0,0,1-.52,5.31q-.7,3.11-4.34,3.29-3.72-2.94-.67-5.4c1.44-1.29-.69-3.41-2.12-2.12ZM45.32,219.76c0,5.55,6.55,8.86,10.45,4.3s-1-11.78-5.58-13.68c-4.87-2-10.77.57-13.24,5.08-3,5.52-.49,12.34,4,16.19,1.46,1.25,3.59-.86,2.12-2.12-4.49-3.85-6.65-11.57-.87-15.44a7.07,7.07,0,0,1,8.7.24,10.86,10.86,0,0,1,2.3,3,4.36,4.36,0,0,1,.14,5.05q-4.85,2-5-2.57a1.5,1.5,0,0,0-3,0ZM368.2,118.84a41.76,41.76,0,0,1,1.1,12c-.1,1.93,2.9,1.92,3,0a44.64,44.64,0,0,0-1.2-12.83c-.45-1.88-3.35-1.08-2.89.8ZM363.4,119.33a29.11,29.11,0,0,1,12.63-2c1.93.12,1.92-2.88,0-3a31.13,31.13,0,0,0-13.43,2.07c-1.78.69-1,3.59.8,2.89ZM30,329.59a41.23,41.23,0,0,1,6.85,10c.85,1.73,3.44.21,2.59-1.51a43.93,43.93,0,0,0-7.32-10.59c-1.32-1.42-3.44.71-2.12,2.12ZM26,332.35a28.63,28.63,0,0,1,10.08-7.89c1.74-.82.22-3.41-1.51-2.59a30.59,30.59,0,0,0-10.68,8.36c-1.21,1.48.9,3.62,2.12,2.12ZM389,411.59a66.23,66.23,0,0,1-5-13l-.69,1.69c2.43-1.17,5.29,3.13,8.32,1.64,3.24-1.59,4.34-8.17,5.47-11.15h-2.89l5.68,17.29c.6,1.83,3.5,1,2.89-.8L397.16,390a1.51,1.51,0,0,0-2.89,0c-.77,2-1.34,4.5-2.43,6.36-2.47,4.2-2.56,2.6-5.42,1.41a5,5,0,0,0-4.57-.06,1.51,1.51,0,0,0-.69,1.69,70,70,0,0,0,5.28,13.71c.88,1.72,3.47.2,2.59-1.51ZM207.89,153.93a1.5,1.5,0,0,0,0-3,1.5,1.5,0,0,0,0,3ZM205.28,161.76a1.5,1.5,0,0,0,0-3,1.5,1.5,0,0,0,0,3ZM212.46,167a1.5,1.5,0,0,0,0-3,1.5,1.5,0,0,0,0,3ZM215.07,155.23a1.5,1.5,0,0,0,0-3,1.5,1.5,0,0,0,0,3ZM218.34,162.41a1.5,1.5,0,0,0,0-3,1.5,1.5,0,0,0,0,3ZM211.16,160.45a1.5,1.5,0,0,0,0-3,1.5,1.5,0,0,0,0,3ZM4.06,437.55a1.5,1.5,0,0,0,0-3,1.5,1.5,0,0,0,0,3ZM1.45,445.38a1.5,1.5,0,0,0,0-3,1.5,1.5,0,0,0,0,3ZM8.63,450.6a1.5,1.5,0,0,0,0-3,1.5,1.5,0,0,0,0,3ZM11.24,438.85a1.5,1.5,0,0,0,0-3,1.5,1.5,0,0,0,0,3ZM14.5,446a1.5,1.5,0,0,0,0-3,1.5,1.5,0,0,0,0,3ZM7.32,444.07a1.5,1.5,0,0,0,0-3,1.5,1.5,0,0,0,0,3ZM418.56,185a68.68,68.68,0,0,1-10.78,9.57c-1.56,1.11-.06,3.71,1.51,2.59a72.31,72.31,0,0,0,11.38-10c1.3-1.42-.81-3.55-2.12-2.12ZM407.72,187.59a43.38,43.38,0,0,0,11.54,13.87c1.5,1.18,3.64-.93,2.12-2.12a41.34,41.34,0,0,1-11.07-13.26c-.9-1.71-3.49-.19-2.59,1.51ZM102.41,427.19a68.68,68.68,0,0,1-10.78,9.57c-1.56,1.11-.06,3.71,1.51,2.59a72.31,72.31,0,0,0,11.38-10c1.3-1.42-.81-3.55-2.12-2.12ZM91.57,429.76a43.38,43.38,0,0,0,11.54,13.87c1.5,1.18,3.64-.93,2.12-2.12a41.34,41.34,0,0,1-11.07-13.26c-.9-1.71-3.49-.19-2.59,1.51ZM389.16,46.41v4.85a1.5,1.5,0,0,0,3,0V46.41a1.5,1.5,0,0,0-3,0v4.85a1.5,1.5,0,0,0,3,0V46.41A1.5,1.5,0,0,0,389.16,46.41ZM389.16,60.82v4.85a1.5,1.5,0,0,0,3,0V60.82a1.5,1.5,0,0,0-3,0v4.85a1.5,1.5,0,0,0,3,0V60.82A1.5,1.5,0,0,0,389.16,60.82ZM400.29,54.54h-4.85a1.5,1.5,0,0,0,0,3h4.85a1.5,1.5,0,0,0,0-3h-4.85a1.5,1.5,0,0,0,0,3h4.85A1.5,1.5,0,0,0,400.29,54.54ZM385.88,54.54H381a1.5,1.5,0,0,0,0,3h4.85a1.5,1.5,0,0,0,0-3ZM132.68,360.55v4.85a1.5,1.5,0,0,0,3,0v-4.85a1.5,1.5,0,0,0-3,0v4.85a1.5,1.5,0,0,0,3,0v-4.85A1.5,1.5,0,0,0,132.68,360.55ZM132.68,375v4.85a1.5,1.5,0,0,0,3,0V375a1.5,1.5,0,0,0-3,0v4.85a1.5,1.5,0,0,0,3,0V375A1.5,1.5,0,0,0,132.68,375ZM143.8,368.68H139a1.5,1.5,0,0,0,0,3h4.85a1.5,1.5,0,0,0,0-3H139a1.5,1.5,0,0,0,0,3h4.85A1.5,1.5,0,0,0,143.8,368.68ZM129.4,368.68h-4.85a1.5,1.5,0,0,0,0,3h4.85a1.5,1.5,0,0,0,0-3ZM234.9,207c3.32,1.55,7.54,3.31,11.1,1.42a8.47,8.47,0,0,0,3.28-3.73c.41-.74.69-2,1.33-2.62,3.11-2.81,4.88.13,6.45,1.71,2.13,2.15,5.26,4.72,8.44,2.86,1.5-.88,2.17-2.51,2.83-4s5-13.15,8-6.2c.77,1.76,3.36.24,2.59-1.51a5.5,5.5,0,0,0-8-2.41,9.31,9.31,0,0,0-3.29,3.76c-1.7,3.14-2.17,10.38-8,5.9-2.66-2.05-4.72-5.73-8.7-4.21-1.73.66-2.61,2.09-3.47,3.64a6.88,6.88,0,0,1-2.94,3.39c-2.91,1.94-5.14.83-8.13-.56-1.74-.81-3.26,1.78-1.51,2.59Z"/></svg>