<svg xmlns="http://www.w3.org/2000/svg" viewBox="0 0 62.99 63.97" fill="#ffffff"><path d="M41.84,4.44a5.75,5.75,0,0,1,3.54-2.09c.18-1,1-2.35,2.21-2.35L57,.52c1,0,1.68,2.18,1.68,2.18A6.53,6.53,0,0,1,63,8.63V54.47A9.62,9.62,0,0,1,53.26,64h-4.6a5,5,0,0,1-5-5V32.16L32.11,46.28V16.38ZM53.3,32.88a4.81,4.81,0,1,0,4.84,4.81A4.83,4.83,0,0,0,53.3,32.88ZM48.43,13.57A2.42,2.42,0,1,0,50.86,16,2.43,2.43,0,0,0,48.43,13.57Zm4.88,4.84a2.42,2.42,0,1,0,2.44,2.42A2.43,2.43,0,0,0,53.3,18.41Zm4.88-4.84A2.42,2.42,0,1,0,60.62,16,2.43,2.43,0,0,0,58.18,13.57ZM53.3,8.72a2.42,2.42,0,1,0,2.44,2.42A2.43,2.43,0,0,0,53.3,8.72ZM30.88,16.38v29.9L19.38,32.16V59a5,5,0,0,1-5,5H9.73A9.62,9.62,0,0,1,0,54.47V8.63A6.53,6.53,0,0,1,4.34,2.7V2.26A1.68,1.68,0,0,1,6,.52L15.4,0c1.24,0,2,1.31,2.21,2.35a5.75,5.75,0,0,1,3.54,2.09Zm-16.68,20H12.07a.6.6,0,0,1-.6-.6V33.33A1.46,1.46,0,0,0,10,31.88H9.95A1.46,1.46,0,0,0,8.5,33.33v2.42a.6.6,0,0,1-.6.6H5.48A1.46,1.46,0,0,0,4,37.81v.08a1.46,1.46,0,0,0,1.45,1.45H7.9a.6.6,0,0,1,.6.6v2.13a1.46,1.46,0,0,0,1.45,1.45H10a1.46,1.46,0,0,0,1.45-1.45V39.93a.6.6,0,0,1,.6-.6H14.2a1.46,1.46,0,0,0,1.45-1.45v-.08A1.46,1.46,0,0,0,14.2,36.35ZM9.69,11.18A4.81,4.81,0,1,0,14.53,16,4.83,4.83,0,0,0,9.69,11.18Zm0,1.22A3.59,3.59,0,1,0,13.31,16,3.6,3.6,0,0,0,9.69,12.4ZM53.3,34.1a3.59,3.59,0,1,0,3.62,3.59A3.6,3.6,0,0,0,53.3,34.1Z"/></svg>