<svg xmlns="http://www.w3.org/2000/svg" viewBox="0 0 674.95 255.99"><path d="M634.64,103.72l3.35,6.07-7.23,4-.66-1.21-2.46,1.35-2-3.64,2.45-1.35-.67-1.22Zm38.73-37.36c-1-12.58-13.62-23.27-38-31.77a77.67,77.67,0,0,0-47.81-.94h16.78a75,75,0,0,1,30.08,4.09c23.11,8.18,35.14,17.93,35.77,28.93,1.27,20.45-34.41,38.24-34.73,38.56l1.5,2.71C638.55,107,674.63,88.69,673.37,66.36ZM519.7,82.6l-1.23-3.3-6.38,9.58,1.32,3.53Zm-43,59.83c-33.65,44.57-85,74.79-137.76,91.18C305.16,244.1,270.13,249,234.9,251c-29.11,1.64-61.65,3.71-89.87-5.25-7.51-2.39-17.76-6.64-19.53-15.39-1.74-8.58,5.87-16.67,11.57-22.05,3.58-3.38,16.08-11.37,16.08-11.37v-4.43c-12.64,7.37-30.46,19.3-33.37,34.76-2.71,14.42,13.63,20.88,24.9,23.81,19,4.95,64.33,6.41,97.92,3.34,65.3-6,130.66-22.12,184.53-60.55a260.8,260.8,0,0,0,33.69-28.46c3.78-3.8,7.44-7.74,10.92-11.82,1.26-1.48,2.54-3,3.76-4.49,1-1.27,2.3-3,2.3-3Zm-237-86.49c-8.06-14-19.47-26.57-31.35-37.42C197.38,8.53,183.61-.75,168.14.05c-27.74,1.42-41.28,32.81-48.21,55.61,2.31-2.74,6-7.5,6-7.5s1.07-3.28,1.7-4.86c3.46-8.75,7.68-17.39,13.61-24.75C153.21,3.74,170.58-.79,187.72,7.82c14,7,25.68,19,35.77,30.83,13.4,15.65,24.86,35.08,26.63,56a64.82,64.82,0,0,1-6.25,33.14,72.89,72.89,0,0,1-9.74,15.31c-1.39,1.69-2.41,2.81-2.41,2.81v4.43c12-11.9,19.18-25.57,21.13-42.46C255,89.48,249,71.61,239.64,55.94Zm394-15.29A101.19,101.19,0,0,0,605,36.17H519.83V77.25l1.23,3.24,51.63,0V216.37h49.39V80.51l38.87.11c3.16-4.4,6-8.5,5.71-13.22C666,57.34,655.48,48.51,633.63,40.65Zm13-4.48C664.68,44,669.8,48.07,675,60V36.17Zm-156.26,0H447.33L381.8,212.29c43.68-21.08,70.59-46.86,84.52-62.9H454.61l14.56-47.49,9.5,31.76,4.12,13.52.63,2.21h-2.53c-.64.63-.95,1.25-1.59,1.88-8.86,11.32-29.12,34-63.63,55.35l-16.14,9.44h32l9.5-24.85h55.72l9.49,24.85h51Zm-89.59,90.57a92.58,92.58,0,0,1-7.6,37.11,94.85,94.85,0,0,1-51.28,50.64,99.89,99.89,0,0,1-75,0A94.23,94.23,0,0,1,231.74,189v-32.7a79.27,79.27,0,0,0,25.32-46.55c2.54-18.24-2.21-37.11-13.93-56.61a104.7,104.7,0,0,1,24.06-14.47,97,97,0,0,1,75,0,95.2,95.2,0,0,1,30.71,20.45,90,90,0,0,1,20.58,30.19A88.61,88.61,0,0,1,400.79,126.74ZM338.74,91.83a51.25,51.25,0,0,0-15.19-10.69,47,47,0,0,0-38,0A49.7,49.7,0,0,0,270.36,161a51,51,0,0,0,15.2,10.7,47,47,0,0,0,63-26.42A51.12,51.12,0,0,0,338.74,91.83ZM234.27,61.33c-1,.94-1.58,1.88-2.53,2.83V139a68.11,68.11,0,0,0,13.61-30.82C247.57,93.41,243.77,77.68,234.27,61.33ZM115.87,67.5V175.39l41.49-50.95v96.85a18.07,18.07,0,0,0,18.23,17.93h16.6c19.44,0,35.11-15.4,35.11-34.28v-155S201.08,15.7,179.76,8.84l-8-.45c-4.48,0-7.33,4.73-8,8.48A20.72,20.72,0,0,0,151,24.41Zm93.95,76.92a17.48,17.48,0,1,1-17.48-17.37A17.41,17.41,0,0,1,209.82,144.42ZM183.54,66.09a8.8,8.8,0,1,1-8.8-8.74A8.77,8.77,0,0,1,183.54,66.09Zm17.6,17.48a8.8,8.8,0,1,1-8.8-8.74A8.78,8.78,0,0,1,201.14,83.57Zm17.6-17.48a8.8,8.8,0,1,1-8.8-8.74A8.77,8.77,0,0,1,218.74,66.09Zm-17.6-17.48a8.8,8.8,0,1,1-8.8-8.74A8.77,8.77,0,0,1,201.14,48.61ZM76.32,24.41a20.74,20.74,0,0,0-12.77-7.54c-.65-3.75-3.51-8.48-8-8.48L21.72,10.27a6.08,6.08,0,0,0-6.06,6.28v1.58A23.57,23.57,0,0,0,0,39.53V204.94c0,18.88,15.66,34.28,35.11,34.28h16.6a18.06,18.06,0,0,0,18.22-17.93V124.44l41.5,50.95V67.5ZM56.48,144.81v.28a5.25,5.25,0,0,1-5.24,5.24H43.57a2.16,2.16,0,0,0-2.15,2.15v7.67a5.25,5.25,0,0,1-5.24,5.24H35.9a5.25,5.25,0,0,1-5.24-5.24v-7.67a2.16,2.16,0,0,0-2.15-2.15H19.76a5.25,5.25,0,0,1-5.24-5.24v-.28a5.26,5.26,0,0,1,5.24-5.24h8.75a2.07,2.07,0,0,0,1.51-.63,2.12,2.12,0,0,0,.64-1.52v-8.74a5.25,5.25,0,0,1,5.24-5.24h.28a5.25,5.25,0,0,1,5.24,5.24v8.74a2.15,2.15,0,0,0,2.15,2.15h7.67A5.26,5.26,0,0,1,56.48,144.81Zm-4-78.72A17.49,17.49,0,1,1,35,48.73,17.43,17.43,0,0,1,52.45,66.09ZM35,53.13a13,13,0,1,0,13,13A13,13,0,0,0,35,53.13Zm157.38,78.32a13,13,0,1,0,13,13A13,13,0,0,0,192.34,131.45Z"/></svg>