<svg xmlns="http://www.w3.org/2000/svg" viewBox="0 0 800 255.99" fill="#ffffff"><path d="M634.64,103.72l3.35,6.07-7.22,4-.67-1.21-2.45,1.35-2-3.64,2.45-1.35-.67-1.22Zm38.73-37.36c-.95-12.58-13.61-23.27-38-31.76a77.62,77.62,0,0,0-47.8-.94h16.78a75,75,0,0,1,30.08,4.09c23.11,8.18,35.14,17.93,35.77,28.93,1.27,20.44-34.41,38.24-34.73,38.55l1.5,2.71C638.55,107,674.63,88.69,673.37,66.36ZM519.7,82.6l-1.23-3.31-6.37,9.58,1.31,3.53Zm-43,59.83c-33.65,44.57-85,74.79-137.77,91.18C305.16,244.1,270.13,249,234.9,251c-29.12,1.65-61.65,3.71-89.87-5.25-7.51-2.39-17.76-6.63-19.53-15.38-1.74-8.58,5.87-16.67,11.57-22.05,3.58-3.38,16.08-11.36,16.08-11.36s0-2,0-4.43c-12.64,7.36-30.46,19.3-33.36,34.76-2.71,14.42,13.62,20.88,24.89,23.81,19,5,64.33,6.41,97.92,3.34,65.3-6,130.67-22.12,184.53-60.55a261.42,261.42,0,0,0,33.69-28.46c3.78-3.81,7.43-7.74,10.91-11.82,1.26-1.48,2.55-3,3.77-4.49,1-1.27,2.3-3,2.3-3ZM239.64,55.94c-8.05-14-19.47-26.57-31.34-37.42C197.38,8.53,183.61-.75,168.14,0c-27.74,1.43-41.29,32.81-48.21,55.61,2.3-2.74,6-7.5,6-7.5s1.07-3.28,1.69-4.86c3.47-8.75,7.68-17.39,13.61-24.75C153.21,3.74,170.58-.79,187.72,7.82c14,7,25.69,19,35.77,30.82,13.4,15.66,24.86,35.08,26.63,56a64.78,64.78,0,0,1-6.25,33.14,73.07,73.07,0,0,1-9.74,15.31c-1.39,1.68-2.41,2.8-2.41,2.8v4.43c12-11.89,19.18-25.57,21.13-42.46C255,89.48,249,71.61,239.64,55.94Zm539.17,95h13.32a15.16,15.16,0,0,1-1.33,3.61,9.56,9.56,0,0,1-2,2.68,13.36,13.36,0,0,1-4,2.5,16.4,16.4,0,0,1-11.28-.06,14.09,14.09,0,0,1-4.59-2.91,13.62,13.62,0,0,1-3.14-4.56,16,16,0,0,1,0-11.94,13.63,13.63,0,0,1,7.67-7.47,16,16,0,0,1,11.6.12,14.71,14.71,0,0,1,4.62,3.32l5.51-5.35a20.62,20.62,0,0,0-7-4.88,24.36,24.36,0,0,0-17.91-.12,21.72,21.72,0,0,0-7.1,4.59,22,22,0,0,0-4.79,7,22.65,22.65,0,0,0,0,17.58,22,22,0,0,0,4.79,7,21.66,21.66,0,0,0,7.1,4.59,23.08,23.08,0,0,0,8.7,1.65,23.48,23.48,0,0,0,9.06-1.65,19.56,19.56,0,0,0,6.81-4.65,17.66,17.66,0,0,0,3.91-6.41,23.17,23.17,0,0,0,1.24-7.64,17.34,17.34,0,0,0-.12-2,13.82,13.82,0,0,0-.3-1.7H778.81Zm-62.34,16.35h7.87V137.48l18,29.82h8.41V125.19h-7.93v28.23l-17.05-28.23h-9.29Zm-16.51,0h8V125.19h-8Zm-50.73,0h7.87V139.48l10.83,18.88h4.8l10.77-18.88v27.82h7.93V125.19H683.5l-13,22.29h-.47l-13-22.29h-7.87Zm-45.94,0h8.82l3.49-10.06h16.34l3.49,10.06h8.82l-15.93-42.11h-9.12Zm14.92-17.35L622,139.42l1.54-5.11H624l1.54,5.11,3.79,10.53Zm-38.6,1h13.32a15.16,15.16,0,0,1-1.33,3.61,9.56,9.56,0,0,1-2,2.68,13.36,13.36,0,0,1-4,2.5,16.4,16.4,0,0,1-11.28-.06,14.09,14.09,0,0,1-4.59-2.91,13.62,13.62,0,0,1-3.14-4.56,16,16,0,0,1,0-11.94,13.63,13.63,0,0,1,7.67-7.47,16,16,0,0,1,11.6.12,14.71,14.71,0,0,1,4.62,3.32l5.51-5.35a20.62,20.62,0,0,0-7-4.88,24.36,24.36,0,0,0-17.91-.12,21.72,21.72,0,0,0-7.1,4.59,22,22,0,0,0-4.8,7,22.65,22.65,0,0,0,0,17.58,22,22,0,0,0,4.8,7,21.66,21.66,0,0,0,7.1,4.59,23.08,23.08,0,0,0,8.7,1.65,23.48,23.48,0,0,0,9.06-1.65,19.56,19.56,0,0,0,6.81-4.65,17.66,17.66,0,0,0,3.91-6.41,23.17,23.17,0,0,0,1.24-7.64,17.34,17.34,0,0,0-.12-2,13.82,13.82,0,0,0-.3-1.7H579.61Zm-6.91,65.43h49.39v-27H572.69ZM633.63,40.65A101.48,101.48,0,0,0,605,36.17H519.83V77.25l1.24,3.24,51.63,0v23.27h49.39V80.51l38.86.11c3.17-4.4,6-8.5,5.72-13.22C666,57.34,655.48,48.51,633.63,40.65Zm13-4.48C664.68,44,669.8,48.07,675,60V36.17Zm-156.26,0H447.33L381.8,212.29c43.69-21.07,70.6-46.86,84.53-62.9H454.61l14.56-47.49,9.5,31.76,4.12,13.52.63,2.2h-2.53c-.63.63-.95,1.26-1.58,1.89-8.86,11.32-29.13,34-63.63,55.35l-16.15,9.43h32l9.5-24.85h55.72l9.5,24.85h51Zm-89.59,90.58a92.7,92.7,0,0,1-7.6,37.11,94.85,94.85,0,0,1-51.29,50.63,99.89,99.89,0,0,1-75,0A94.37,94.37,0,0,1,231.74,189V156.31a79.25,79.25,0,0,0,25.33-46.55c2.53-18.24-2.22-37.11-13.93-56.61a104,104,0,0,1,24.06-14.47,97,97,0,0,1,75,0,95.28,95.28,0,0,1,30.71,20.44,90,90,0,0,1,20.58,30.19A88.77,88.77,0,0,1,400.79,126.74Zm-62-34.91a51.08,51.08,0,0,0-15.2-10.69,47,47,0,0,0-38,0A49.71,49.71,0,0,0,270.36,161a51.08,51.08,0,0,0,15.2,10.69,47,47,0,0,0,63-26.42A51.12,51.12,0,0,0,338.74,91.83Zm-93.39,16.35A68,68,0,0,1,231.74,139V64.16c.95-.94,1.58-1.89,2.53-2.83C243.77,77.68,247.57,93.41,245.35,108.19ZM115.87,67.5V175.39l41.5-51v96.85a18.07,18.07,0,0,0,18.22,17.93h16.6c19.45,0,35.11-15.41,35.11-34.28v-155S201.08,15.7,179.76,8.84l-8-.45c-4.47,0-7.33,4.73-8,8.48A20.74,20.74,0,0,0,151,24.41Zm94,76.92A17.48,17.48,0,1,1,192.34,127,17.42,17.42,0,0,1,209.82,144.42ZM183.54,66.09a8.8,8.8,0,1,1-8.8-8.74A8.77,8.77,0,0,1,183.54,66.09Zm17.6,17.48a8.8,8.8,0,1,1-8.8-8.74A8.77,8.77,0,0,1,201.14,83.57Zm17.6-17.48a8.8,8.8,0,1,1-8.8-8.74A8.77,8.77,0,0,1,218.74,66.09Zm-17.6-17.48a8.8,8.8,0,1,1-8.8-8.74A8.77,8.77,0,0,1,201.14,48.61ZM76.32,24.41a20.74,20.74,0,0,0-12.77-7.54c-.65-3.75-3.5-8.48-8-8.48L21.72,10.27a6.08,6.08,0,0,0-6.06,6.28v1.59A23.58,23.58,0,0,0,0,39.53V204.94c0,18.87,15.66,34.28,35.11,34.28h16.6a18.07,18.07,0,0,0,18.22-17.93V124.44l41.5,51V67.5ZM56.48,144.81v.28a5.25,5.25,0,0,1-5.24,5.24H43.57a2.16,2.16,0,0,0-2.15,2.15v7.67a5.25,5.25,0,0,1-5.24,5.24H35.9a5.25,5.25,0,0,1-5.24-5.24v-7.67a2.16,2.16,0,0,0-2.15-2.15H19.76a5.25,5.25,0,0,1-5.24-5.24v-.28a5.25,5.25,0,0,1,5.24-5.24h8.75a2.17,2.17,0,0,0,2.15-2.15v-8.75a5.25,5.25,0,0,1,5.24-5.24h.28a5.25,5.25,0,0,1,5.24,5.24v8.75a2.16,2.16,0,0,0,2.15,2.15h7.67A5.25,5.25,0,0,1,56.48,144.81Zm-4-78.72A17.48,17.48,0,1,1,35,48.73,17.42,17.42,0,0,1,52.45,66.09ZM35,53.13a13,13,0,1,0,13,13A13,13,0,0,0,35,53.13Zm157.38,78.32a13,13,0,1,0,13,13A13,13,0,0,0,192.34,131.45Z"/></svg>