<?xml version="1.0" encoding="utf-8"?>
<!-- Generator: Adobe Illustrator 19.0.0, SVG Export Plug-In . SVG Version: 6.00 Build 0)  -->
<svg version="1.1" id="Layer_1" xmlns="http://www.w3.org/2000/svg" xmlns:xlink="http://www.w3.org/1999/xlink" x="0px" y="0px"
	 viewBox="0 0 336.9 147.2" style="enable-background:new 0 0 336.9 147.2;" xml:space="preserve">
<style type="text/css">
	.st0{fill:#18B35B;}
	.st1{fill:#BDA171;}
	.st2{fill:#A97D51;}
	.st3{fill:url(#SVGID_1_);}
	.st4{fill:url(#SVGID_2_);}
	.st5{fill:url(#SVGID_3_);}
	.st6{fill:url(#SVGID_4_);}
	.st7{fill:#FFCD4E;}
	.st8{fill:#1E1E1E;}
	.st9{fill:#F2F2F2;}
	.st10{fill:url(#SVGID_5_);}
	.st11{fill:url(#SVGID_6_);}
	.st12{fill:#FFFFFF;}
	.st13{fill:url(#SVGID_7_);}
	.st14{fill:#D6186D;}
	.st15{fill:#FCEE23;}
	.st16{opacity:0.65;fill:url(#SVGID_8_);}
	.st17{opacity:0.65;fill:url(#SVGID_9_);}
	.st18{opacity:0.56;fill:#F2F2F2;}
	.st19{fill:#232323;}
	.st20{fill:#B0B0B0;}
	.st21{fill:#9B9B9B;}
	.st22{fill:#BBBBBB;}
	.st23{fill:url(#SVGID_10_);}
	.st24{fill:url(#SVGID_11_);}
	.st25{font-family:'ProductSans-Bold';}
	.st26{font-size:18.8089px;}
	.st27{fill:url(#XMLID_21_);}
	.st28{fill:url(#XMLID_22_);}
	.st29{fill:url(#XMLID_23_);}
	.st30{fill:url(#SVGID_12_);}
	.st31{fill:url(#SVGID_13_);}
	.st32{fill:url(#SVGID_14_);}
	.st33{fill:#231F20;}
	.st34{fill:#61BD64;}
</style>
<polygon class="st0" points="63.3,18.5 63.3,18.5 35.6,33.6 41.9,34.5 33.3,35.2 19.4,41.7 40.2,40.3 59.9,27.8 65.1,48.3 
	73.3,56.9 "/>
<path class="st1" d="M58.6,24.3l-3,5.3c-0.7,1.1-1.2,2.3-1.8,3.4c-0.1,0.2-0.3,0.5-0.4,0.7c-0.5,1-1,2-1.5,3.1c-0.7,1.5-1.3,3-2,4.6
	c0,0,0,0.1-0.1,0.1c-0.4,1.1-0.8,2.2-1.2,3.3c-0.2,0.5-0.4,1-0.5,1.5c-0.3,0.8-0.6,1.6-0.9,2.5c-0.2,0.6-0.3,1.1-0.5,1.7v0
	c-0.1,0.3-0.2,0.6-0.3,0.9c-0.3,1-0.6,2-0.9,3.1v0c-0.2,0.7-0.4,1.5-0.7,2.2c-0.4,1.7-0.8,3.3-1.2,5c0,0.2-0.1,0.3-0.1,0.5
	c-0.3,1.5-0.7,3-1,4.5c-0.1,0.4-0.2,0.7-0.2,1.1c-0.2,1.4-0.5,2.7-0.7,4.1c-0.1,0.5-0.2,1.1-0.3,1.6c-0.2,1-0.4,2.1-0.5,3.1
	c-0.4,2.8-0.8,5.6-1.1,8.3c0,0.1,0,0.2,0,0.3c-0.2,1.5-0.4,3-0.6,4.4c0,0.3-0.1,0.6-0.1,0.9c-0.1,1.9-0.3,3.7-0.4,5.5l0,0.2
	c-0.1,1.2-0.2,2.4-0.3,3.5l0,0c-0.2,2.2-0.4,4.4-0.4,6.5v0c0,0.1,0,0.1,0,0.2c-0.1,1.7-0.1,3.4-0.2,5.1c-0.1,1.5-0.1,2.9-0.2,4.3
	c-0.1,1.6-0.1,3-0.1,4.4c0,1.2,0,2.4,0,3.5v0.2c0,1.3,0,2.5,0,3.6v0c0,0,10.2,2,23.1-3.3c-0.1-0.3-0.8-3.5-0.9-3.8
	c-0.3-1.2-0.7-2.4-1-3.7c-0.2-0.9-0.4-1.8-0.6-2.8c-0.2-1.2-0.5-2.5-0.7-3.8c-0.3-1.3-0.5-2.6-0.8-4c0-0.3-0.1-0.5-0.2-0.8
	c-0.1-0.8-0.3-1.5-0.4-2.3c-0.1-0.8-0.2-1.6-0.3-2.4c0-0.2-0.1-0.5-0.1-0.7c-0.2-1.4-0.4-2.8-0.5-4.2l0-0.1
	c-0.2-1.7-0.4-3.4-0.6-5.1c-0.1-0.5-0.1-1.1-0.1-1.6l0,0c-0.1-1.2-0.1-2.4-0.2-3.6c0-0.2,0-0.3,0-0.5c-0.1-1.6-0.2-3.3-0.3-4.9l0-1
	v0l0-0.4v-1.4l0-2.3v-0.4c0-1.8,0-3.6,0-5.4c0-0.3,0-0.5,0-0.8v0c0-0.6,0.1-1.2,0.1-1.9c0.1-0.8,0.1-1.6,0.2-2.3c0-0.1,0-0.2,0-0.3
	c0.1-1.8,0.2-3.5,0.4-5.3c0-0.4,0.1-0.8,0.2-1.1c0.2-1.3,0.4-2.7,0.6-4c0-0.1,0-0.1,0-0.1c0.1-0.8,0.2-1.6,0.3-2.3
	c0.2-0.8,0.3-1.6,0.5-2.4c0.1-0.5,0.2-1.1,0.3-1.6v0c0.2-1,0.5-2.1,0.7-3.1c0.1-0.3,0.2-0.5,0.2-0.8v0c0.5-1.8,1-3.5,1.5-5.1
	c0.3-0.8,0.5-1.6,0.9-2.4c0.1-0.4,0.3-0.7,0.4-1.1c0.3-0.8,0.6-1.5,0.9-2.2c0.1-0.2,0.2-0.3,0.2-0.5c0.5-1,0.9-2,1.3-2.9L58.6,24.3z
	"/>
<g>
	<path class="st2" d="M57.4,110.3l-0.2,0.3l-4.2-3.1l-3,4l-4-3l-3,4.1l-3.8-2.8l-1.4,1.9c0.1-1.6,0.1-3.3,0.2-5.1c0-0.1,0-0.1,0-0.2
		l0,0l0.6-0.8l3.8,2.8l3-4.1l4,3l3-4l4.2,3.1l0.1-0.1C56.9,107.7,57.1,109,57.4,110.3z"/>
	<path class="st2" d="M55.1,95.9c0.2,1.4,0.4,2.8,0.5,4.2L51.5,97l-3,4l-4-3l-3,4.1l-3-2.3l0,0c0.1-1.2,0.2-2.3,0.3-3.5l2.1,1.6
		l3-4.1l4,3l3-4L55.1,95.9L55.1,95.9z"/>
	<path class="st2" d="M54.1,84.9c0,0.2,0,0.3,0,0.5c0.1,1.2,0.1,2.4,0.2,3.6l0,0l-0.5,0.5L50,86l-3.4,3.6l-3.7-3.4l-3.5,3.7
		l-0.3-0.2c0.2-1.5,0.4-3,0.6-4.4l3-3.3l3.7,3.4l3.4-3.6l3.8,3.6L54.1,84.9z"/>
	<path class="st2" d="M53.7,75l0,2.3l0,1.3l0,0.4l0,0l-0.2,0.2l-3.4-3.9l-3.8,3.3L43,74.8l-2.1,1.8c0.2-1,0.3-2.1,0.5-3.1
		c0.1-0.5,0.2-1.1,0.3-1.6l1.6-1.4l3.3,3.8l3.8-3.3L53.7,75z"/>
	<path class="st2" d="M54.1,64.2c-0.1,0.8-0.1,1.6-0.2,2.3c0,0.6-0.1,1.2-0.1,1.9l-2.5-2.9l-3.8,3.3l-3.1-3.5l-1.7,1.5
		c0.3-1.5,0.7-3,1-4.5c0-0.1,0.1-0.3,0.1-0.4l0.9-0.7l3.1,3.5l3.8-3.3L54.1,64.2z"/>
	<path class="st2" d="M55.3,53.3c0,0.1,0,0.1,0,0.1c-0.2,1.3-0.4,2.6-0.6,4l-1.8-2.3L49,58.3l-3.1-4l-0.3,0.2c0.3-1,0.6-2.1,0.9-3.1
		c0.1-0.3,0.2-0.6,0.3-0.9l2.7,3.5l3.9-3.1L55.3,53.3z"/>
	<path class="st2" d="M57.4,43.2L57.4,43.2c-0.1,0.3-0.1,0.5-0.2,0.8c-0.2,1-0.4,2-0.7,3.1l-1.2-1.7l-4.1,3l-2.5-3.4
		c0.4-1.1,0.8-2.2,1.2-3.3c0,0,0-0.1,0.1-0.1l1.9,2.6l4.1-3L57.4,43.2z"/>
	<path class="st2" d="M60.2,34.6c-0.1,0.4-0.3,0.7-0.4,1.1c-0.3,0.8-0.6,1.5-0.8,2.4l-1.4-2L53.5,39l-1.5-2.1
		c0.5-1.1,0.9-2.1,1.5-3.1l0.8,1.1l4.1-2.9L60.2,34.6z"/>
</g>
<g>
	
		<linearGradient id="SVGID_1_" gradientUnits="userSpaceOnUse" x1="-13.6458" y1="28.4463" x2="-11.4755" y2="16.1377" gradientTransform="matrix(0.9945 0.1047 -0.1047 0.9945 107.3309 10.1156)">
		<stop  offset="0" style="stop-color:#61BD64"/>
		<stop  offset="0.459" style="stop-color:#5FBA62"/>
		<stop  offset="0.6513" style="stop-color:#57B45D"/>
		<stop  offset="0.7937" style="stop-color:#49AA56"/>
		<stop  offset="0.9108" style="stop-color:#309F4D"/>
		<stop  offset="0.9892" style="stop-color:#019547"/>
	</linearGradient>
	<polygon class="st3" points="74.6,19.3 63.3,18.5 71.4,26.4 92.5,37.5 96.7,37.7 92.2,32.3 101.9,38 104.4,38.2 107.6,38.3 
		122.9,39.2 	"/>
	
		<linearGradient id="SVGID_2_" gradientUnits="userSpaceOnUse" x1="-25.0152" y1="42.0006" x2="-16.914" y2="27.9689" gradientTransform="matrix(0.9945 0.1047 -0.1047 0.9945 107.3309 10.1156)">
		<stop  offset="0" style="stop-color:#61BD64"/>
		<stop  offset="0.459" style="stop-color:#5FBA62"/>
		<stop  offset="0.6513" style="stop-color:#57B45D"/>
		<stop  offset="0.7937" style="stop-color:#49AA56"/>
		<stop  offset="0.9108" style="stop-color:#309F4D"/>
		<stop  offset="0.9892" style="stop-color:#019547"/>
	</linearGradient>
	<polygon class="st4" points="63.3,18.5 62.4,27.3 64.7,29.1 71.9,42.4 73.5,37.5 74.6,45.4 78.4,49.5 106.6,61 	"/>
	
		<linearGradient id="SVGID_3_" gradientUnits="userSpaceOnUse" x1="-78.2408" y1="17.1796" x2="-67.581" y2="-1.2838" gradientTransform="matrix(0.9945 0.1047 -0.1047 0.9945 107.3309 10.1156)">
		<stop  offset="0" style="stop-color:#61BD64"/>
		<stop  offset="0.459" style="stop-color:#5FBA62"/>
		<stop  offset="0.6513" style="stop-color:#57B45D"/>
		<stop  offset="0.7937" style="stop-color:#49AA56"/>
		<stop  offset="0.9108" style="stop-color:#309F4D"/>
		<stop  offset="0.9892" style="stop-color:#019547"/>
	</linearGradient>
	<polygon class="st5" points="63.3,18.5 2.3,0 16.1,10.4 35.3,14.2 19.4,12.8 26.7,18.2 46.8,23.2 62.7,24.9 	"/>
	
		<linearGradient id="SVGID_4_" gradientUnits="userSpaceOnUse" x1="34.4499" y1="42.2163" x2="52.9775" y2="10.1255" gradientTransform="matrix(0.9999 -1.645560e-002 1.645560e-002 0.9999 -10.9651 -2.4761)">
		<stop  offset="0" style="stop-color:#61BD64"/>
		<stop  offset="0.459" style="stop-color:#5FBA62"/>
		<stop  offset="0.6513" style="stop-color:#57B45D"/>
		<stop  offset="0.7937" style="stop-color:#49AA56"/>
		<stop  offset="0.9108" style="stop-color:#309F4D"/>
		<stop  offset="0.9892" style="stop-color:#019547"/>
	</linearGradient>
	<polygon class="st6" points="57.1,27 29.6,32.5 0,25.7 63.3,18.5 62.6,25.2 62.4,27.3 	"/>
</g>
<path class="st7" d="M47.5,121.5c-2.8,0.9-5,0.8-9.4,0.3c-0.5,0-0.9,0-1.4,0.1c-1.3,0.4-2.4,0.8-3.5,1.3c-4.5,2-4.9,8.2-0.8,10.9
	c4.3,2.8,10.7,6.3,18.7,9c0,0,0,0,0,0c0.3,0.1,0.6,0.2,0.9,0.3c11.6,3.7,26.8,5.6,44.8,1.7c3.4-0.8,6.2-1.7,8.5-2.8
	c4-1.8,2.9-7.7-1.4-8.2c-7.1-0.8-16.9-3.6-27.7-11.7c-5.8-4.4-12.2-5.8-18.5-5.7h-0.1c0,0,0,0,0,0c-1.8,0-3.1,0.3-4.8,1.2
	C51.4,118.7,49.6,120.8,47.5,121.5z"/>
<g>
	<path class="st8" d="M198.1,110.4L198.1,110.4c-0.5-0.1-0.9-0.5-0.8-1L204,57c0.1-0.5,0.5-0.9,1-0.8l0,0c0.5,0.1,0.9,0.5,0.8,1
		l-6.7,52.3C199.1,110.1,198.6,110.4,198.1,110.4z"/>
	<g>
		<path class="st9" d="M213.9,67.8c-8.7-4.8-20-2.7-20.5-2.6L206,47.7L213.9,67.8z"/>
		
			<linearGradient id="SVGID_5_" gradientUnits="userSpaceOnUse" x1="326.1251" y1="149.0555" x2="333.0592" y2="130.0042" gradientTransform="matrix(0.9894 -0.1455 0.1455 0.9894 -155.6905 -35.21)">
			<stop  offset="0" style="stop-color:#9E1C20"/>
			<stop  offset="0.1509" style="stop-color:#AE2226"/>
			<stop  offset="0.3307" style="stop-color:#BB272A"/>
			<stop  offset="0.5598" style="stop-color:#C22A2D"/>
			<stop  offset="1" style="stop-color:#C42B2E"/>
		</linearGradient>
		<path class="st10" d="M206,47.7l-12.6,17.5l0,0c-6.1-3.4-13.5-3.4-17.5-3c-0.5,0-0.7-0.6-0.2-0.8L206,47.7z"/>
		
			<linearGradient id="SVGID_6_" gradientUnits="userSpaceOnUse" x1="359.5273" y1="160.8748" x2="354.6295" y2="133.0976" gradientTransform="matrix(0.9894 -0.1455 0.1455 0.9894 -155.6905 -35.21)">
			<stop  offset="0" style="stop-color:#9E1C20"/>
			<stop  offset="0.1509" style="stop-color:#AE2226"/>
			<stop  offset="0.3307" style="stop-color:#BB272A"/>
			<stop  offset="0.5598" style="stop-color:#C22A2D"/>
			<stop  offset="1" style="stop-color:#C42B2E"/>
		</linearGradient>
		<path class="st11" d="M231.2,69c-8.3-3-17.3-1.2-17.3-1.2L206,47.7l25.6,20.5C232,68.5,231.7,69.1,231.2,69z"/>
	</g>
	<circle class="st8" cx="206.1" cy="47.5" r="1"/>
</g>
<g>
	<path class="st12" d="M209.1,102.7c0-4.2-0.8-8.2-2.4-12c-1.6-3.7-3.8-7-6.6-9.7c-2.8-2.8-6.1-5-9.8-6.6c-3.8-1.6-7.8-2.4-12-2.4
		c-4.3,0-8.3,0.8-12,2.4c-3.7,1.6-7,3.8-9.8,6.6c-2.8,2.8-5,6-6.6,9.7c-1.6,3.7-2.4,7.7-2.4,12c0,4.2,0.8,8.2,2.4,12
		c1.6,3.7,3.8,7,6.6,9.7c2.8,2.8,6.1,4.9,9.8,6.5c3.7,1.6,7.7,2.4,12,2.4c4.2,0,8.2-0.8,12-2.4c3.8-1.6,7-3.8,9.8-6.5
		c2.8-2.8,5-6,6.6-9.7C208.3,111,209.1,107,209.1,102.7z M192.4,108.8c-0.8,1.9-1.8,3.6-3.2,5.1c-1.3,1.4-3,2.6-4.8,3.5
		c-1.9,0.9-3.9,1.3-6.1,1.3c-2.2,0-4.2-0.4-6.1-1.3c-1.9-0.9-3.5-2-4.8-3.5c-1.3-1.4-2.4-3.1-3.2-5.1c-0.8-1.9-1.2-4-1.2-6.1
		c0-2.1,0.4-4.2,1.2-6.1c0.8-1.9,1.8-3.6,3.2-5c1.3-1.4,3-2.6,4.8-3.5c1.9-0.9,3.9-1.3,6.1-1.3c2.2,0,4.2,0.4,6.1,1.3
		c1.9,0.9,3.5,2,4.8,3.5c1.3,1.4,2.4,3.1,3.2,5c0.8,1.9,1.2,3.9,1.2,6.1C193.5,104.8,193.1,106.9,192.4,108.8z"/>
	<linearGradient id="SVGID_7_" gradientUnits="userSpaceOnUse" x1="202.5593" y1="102.6009" x2="259.1035" y2="102.6009">
		<stop  offset="0" style="stop-color:#006FAB"/>
		<stop  offset="1" style="stop-color:#48A6DD"/>
	</linearGradient>
	<path class="st13" d="M224,73.6l-21.4,58h16.4l3-8h17.9l3,8h16.4l-21.4-58H224z M226.2,110.1l4.6-15.3l4.6,15.3H226.2z"/>
	<rect x="264.1" y="122.9" class="st12" width="15.8" height="8.7"/>
	<polygon class="st12" points="247.2,73.6 247.2,86.9 248.2,88 264.1,88 264.1,95.4 279.9,95.4 279.9,88 295.8,88 296.8,86.9 
		296.8,73.6 	"/>
</g>
<path class="st14" d="M204.6,81.9L204.6,81.9l-0.3-0.1c-3.4-0.5-6.3-0.8-8.8-0.8c-10.7,0-14.1,4-14.3,4.2c0,0-0.6,0.8-2.4,0.8
	c-1.8-0.1-2.4-0.8-2.4-0.8c-0.2-0.2-3.6-4.2-14.3-4.2c-2.5,0-5.4,0.2-8.8,0.8l-0.3,0.1v0c-0.1,0.3-0.4,2.4,0,5.2
	c0.4,3.3,1.8,7.8,5.7,11.7c5.2,5.2,15.6,0.8,17-5.3c0,0,0.9-3.6,3.1-3.7c2.3,0.1,3.1,3.7,3.1,3.7c1.4,6.1,11.8,10.5,17,5.3
	c3.9-3.9,5.3-8.3,5.7-11.7C205,84.3,204.7,82.2,204.6,81.9z M172.5,96.2c0,0-4.7,6.3-11.6,1.9c-4.9-3.1-5-7.9-4.6-10.3
	c0.1-1,0.9-1.8,1.8-2.1c2.6-0.7,8.6-1.6,13.1,0.6c1,0.5,2.3,1.5,2.8,2.5C174.9,90.3,175.3,92.8,172.5,96.2z M196.6,98
	c-6.9,4.4-11.6-1.9-11.6-1.9c-2.8-3.4-2.4-5.9-1.5-7.5c0.5-1,1.8-2,2.8-2.5c4.6-2.2,10.5-1.3,13.1-0.6c1,0.3,1.7,1.1,1.8,2.1
	C201.6,90.2,201.6,94.9,196.6,98z"/>
<path class="st15" d="M196.6,98c-1.8,1.2-3.5,1.6-5,1.6h0c-0.8,0-1.5-0.1-2.2-0.3c-0.6-0.2-1.2-0.5-1.7-0.8c-1.8-1-2.8-2.3-2.8-2.3
	c-0.1-0.1-0.2-0.2-0.3-0.3c-2.5-3.2-2.1-5.6-1.3-7.1c0.5-1,1.8-2,2.8-2.5c1.7-0.8,3.6-1.2,5.5-1.4c1.6-0.1,3.3,0,4.7,0.1
	c0.7,0.1,1.4,0.2,2,0.4c0.4,0.1,0.7,0.2,1,0.3c0.3,0.1,0.7,0.3,0.9,0.5c0.5,0.4,0.8,1,0.9,1.6C201.6,90.2,201.6,94.9,196.6,98z"/>
<path class="st15" d="M172.5,96.2c0,0-4.6,6.1-11.4,2c-0.1,0-0.1-0.1-0.2-0.1c-1.2-0.8-2.1-1.6-2.8-2.6c-2.1-2.8-2.1-5.9-1.8-7.8
	c0.1-1,0.9-1.8,1.8-2.1c1.5-0.4,4.1-0.9,6.8-0.8c1.4,0,2.9,0.2,4.4,0.7c0.7,0.2,1.3,0.4,1.9,0.7c1,0.5,2.3,1.5,2.8,2.5
	C174.9,90.3,175.3,92.8,172.5,96.2z"/>
<linearGradient id="SVGID_8_" gradientUnits="userSpaceOnUse" x1="182.8591" y1="92.215" x2="201.4114" y2="92.215">
	<stop  offset="0" style="stop-color:#FCEF44"/>
	<stop  offset="5.699537e-002" style="stop-color:#FCDE32"/>
	<stop  offset="0.1286" style="stop-color:#FCD220"/>
	<stop  offset="0.2023" style="stop-color:#FDCA15"/>
	<stop  offset="0.2809" style="stop-color:#FDC712"/>
	<stop  offset="0.6685" style="stop-color:#F39140"/>
	<stop  offset="0.8876" style="stop-color:#ED683C"/>
	<stop  offset="1" style="stop-color:#E93F3A"/>
</linearGradient>
<path class="st16" d="M196.6,98c-1.8,1.2-3.5,1.6-5,1.6h0c-0.8,0-1.5-0.1-2.2-0.3c-0.6-0.2-1.2-0.5-1.7-0.8c-1.8-1-2.8-2.3-2.8-2.3
	c-0.1-0.1-0.2-0.2-0.3-0.3c-2.5-3.2-2.1-5.6-1.3-7.1c0.5-1,1.8-2,2.8-2.5c1.7-0.8,3.6-1.2,5.5-1.4c1.6-0.1,3.3,0,4.7,0.1
	c0.7,0.1,1.4,0.2,2,0.4c0.4,0.1,0.7,0.2,1,0.3c0.3,0.1,0.7,0.3,0.9,0.5c0.5,0.4,0.8,1,0.9,1.6C201.6,90.2,201.6,94.9,196.6,98z"/>
<linearGradient id="SVGID_9_" gradientUnits="userSpaceOnUse" x1="156.1427" y1="92.2166" x2="174.6974" y2="92.2166">
	<stop  offset="0" style="stop-color:#FCEF44"/>
	<stop  offset="5.699537e-002" style="stop-color:#FCDE32"/>
	<stop  offset="0.1286" style="stop-color:#FCD220"/>
	<stop  offset="0.2023" style="stop-color:#FDCA15"/>
	<stop  offset="0.2809" style="stop-color:#FDC712"/>
	<stop  offset="0.6685" style="stop-color:#F39140"/>
	<stop  offset="0.8876" style="stop-color:#ED683C"/>
	<stop  offset="1" style="stop-color:#E93F3A"/>
</linearGradient>
<path class="st17" d="M172.5,96.2c0,0-4.6,6.1-11.4,2c-0.1,0-0.1-0.1-0.2-0.1c-1.2-0.8-2.1-1.6-2.8-2.6c-2.1-2.8-2.1-5.9-1.8-7.8
	c0.1-1,0.9-1.8,1.8-2.1c1.5-0.4,4.1-0.9,6.8-0.8c1.4,0,2.9,0.2,4.4,0.7c0.7,0.2,1.3,0.4,1.9,0.7c1,0.5,2.3,1.5,2.8,2.5
	C174.9,90.3,175.3,92.8,172.5,96.2z"/>
<path class="st18" d="M196.5,85l-8.7,13.5c-1.8-1-2.8-2.3-2.8-2.3c-0.1-0.1-0.2-0.2-0.3-0.3l7.1-10.9
	C193.5,84.8,195.1,84.9,196.5,85z"/>
<path class="st18" d="M200.4,86.1l-8.7,13.5h0c-0.8,0-1.5-0.1-2.2-0.3l9-13.9c0.4,0.1,0.7,0.2,1,0.3
	C199.8,85.7,200.1,85.9,200.4,86.1z"/>
<path class="st18" d="M169.3,85.5l-8.2,12.6c-0.1,0-0.1-0.1-0.2-0.1c-1.2-0.8-2.1-1.6-2.8-2.6l6.8-10.6
	C166.4,84.9,167.9,85.1,169.3,85.5z"/>
<circle class="st8" cx="154.8" cy="83.8" r="1.2"/>
<circle class="st8" cx="202.8" cy="83.8" r="1.2"/>
<path class="st19" d="M235.2,106.6"/>
<g>
	<path class="st20" d="M247.9,87.6c-1.2,1.4-2.4,2.8-3.5,4.1l0.4,1.1c1.3-1.6,2.6-3.3,4.1-4.9h-0.7L247.9,87.6z"/>
	<path class="st20" d="M296.3,83.4c-0.3-4-4.3-7.4-12.1-10.2c-6.2-2.2-12.1-1.7-17.6,0.5h3.2c4.5-1.2,9.2-1.3,14.1,0.5
		c7.4,2.6,11.3,5.8,11.5,9.4c0.4,6.5-11.4,12.6-11.5,12.6l0.5,0.9C284.7,96.7,296.7,90.6,296.3,83.4z"/>
</g>
<g>
	
		<rect x="282.2" y="95.6" transform="matrix(-0.4852 -0.8744 0.8744 -0.4852 335.961 391.6629)" class="st21" width="2.2" height="2.7"/>
	
		<rect x="281" y="97.4" transform="matrix(-0.4852 -0.8744 0.8744 -0.4852 333.0121 391.5879)" class="st12" width="1.6" height="0.8"/>
</g>
<g>
	<g>
		<path id="XMLID_17_" class="st22" d="M150.6,70.9c-6.6-7.2-12.8-10-18.2-8.5c-8.9,2.5-13.5,15.9-15.1,22l1.7-2.1
			c2-6.5,6.4-16.9,13.7-19c5.1-1.4,10.9,1.3,17.2,8.2c8.2,8.9,11.9,17.5,10.8,25.4c-0.9,6.5-4.8,11.2-7.5,13.6v1.4
			c2.8-2.4,7.5-7.4,8.5-14.8C162.8,88.9,159.1,80,150.6,70.9z"/>
	</g>
</g>
<g>
	<path class="st12" d="M87.7,66.2l10.8-0.6c0.9,0,1.7,1.4,1.7,2.3l0,0H86.6v-0.6C86.6,66.7,87.1,66.2,87.7,66.2z"/>
	<path class="st12" d="M135.8,65.5l10.8,0.6c0.6,0,1.1,0.5,1.1,1.1v0.6h-13.6l0,0C134.1,66.9,134.9,65.5,135.8,65.5z"/>
	<g>
		<g>
			<linearGradient id="SVGID_10_" gradientUnits="userSpaceOnUse" x1="117.0198" y1="103.1828" x2="153.2437" y2="103.1828">
				<stop  offset="0" style="stop-color:#006FAB"/>
				<stop  offset="1" style="stop-color:#48A6DD"/>
			</linearGradient>
			<path class="st23" d="M145.4,67.3h-11.2c-2,0-3.9,0.9-5.2,2.5l-12,14.9v34.7l14-17.5v31.3c0,3.2,2.6,5.8,5.8,5.8h5.2
				c6.1,0,11.1-5,11.1-11.1V74.7C153.2,70.6,149.7,67.3,145.4,67.3z"/>
		</g>
	</g>
	<g>
		<g>
			<linearGradient id="SVGID_11_" gradientUnits="userSpaceOnUse" x1="80.7959" y1="103.1828" x2="117.0198" y2="103.1828">
				<stop  offset="0" style="stop-color:#006FAB"/>
				<stop  offset="1" style="stop-color:#48A6DD"/>
			</linearGradient>
			<path class="st24" d="M88.6,67.3h11.2c2,0,3.9,0.9,5.2,2.5l12,14.9v34.7l-14-17.5v31.3c0,3.2-2.6,5.8-5.8,5.8h-5.2
				c-6.1,0-11.1-5-11.1-11.1V74.7C80.8,70.6,84.3,67.3,88.6,67.3z"/>
		</g>
	</g>
	<g>
		<circle class="st22" cx="92.1" cy="81.1" r="5.3"/>
		<circle class="st12" cx="92.1" cy="81.1" r="4.2"/>
	</g>
	<g>
		<circle class="st22" cx="142.4" cy="104.6" r="5.3"/>
		<circle class="st12" cx="142.4" cy="104.6" r="4.2"/>
	</g>
	<g>
		<g>
			<ellipse class="st12" cx="142.2" cy="76.4" rx="2.4" ry="2.5"/>
			<path class="st12" d="M143.9,87.6c0.9-1,0.9-2.6,0-3.5c-0.9-1-2.5-1-3.4,0c-0.9,1-0.9,2.6,0,3.5
				C141.4,88.6,142.9,88.6,143.9,87.6z"/>
			<ellipse class="st12" cx="136.8" cy="81.4" rx="2.4" ry="2.5"/>
			<ellipse class="st12" cx="147.5" cy="81.4" rx="2.4" ry="2.5"/>
		</g>
	</g>
	<path class="st12" d="M96.2,103.1h-2.5c-0.1,0-0.2-0.1-0.2-0.2v-2.5c0-0.7-0.6-1.3-1.3-1.3h0c-0.7,0-1.3,0.6-1.3,1.3v2.5
		c0,0.1-0.1,0.2-0.2,0.2h-2.5c-0.7,0-1.3,0.6-1.3,1.3v0c0,0.7,0.6,1.3,1.3,1.3h2.5c0.1,0,0.2,0.1,0.2,0.2v2.5c0,0.7,0.6,1.3,1.3,1.3
		h0c0.7,0,1.3-0.6,1.3-1.3v-2.5c0-0.1,0.1-0.2,0.2-0.2h2.5c0.7,0,1.3-0.6,1.3-1.3v0C97.5,103.6,96.9,103.1,96.2,103.1z"/>
</g>
<g>
	<g>
		<path id="XMLID_15_" class="st20" d="M234.3,106.7c-0.2,0.3-19.7,31.7-72.7,35.6c-35.5,2.7-42-3.2-40.4-8.5
			c1.1-3.5,5.9-7.2,9.9-9.8v-1.2c-4.5,2.8-10.3,7.1-11.7,11.5c-2.6,8.5,12.8,11.6,41.6,9.3c1.8-0.1,3.6-0.3,5.3-0.5
			c47.4-5.6,66.5-32.6,68.4-35.6l-0.3-1C234.3,106.7,234.3,106.7,234.3,106.7z"/>
	</g>
</g>
<path class="st7" d="M76.1,128.7c0.3,0,10.7,8.8,27.2,7.7c0,0,1.8,6.2-16.3,6.4S76.1,128.7,76.1,128.7z"/>
<text id="XMLID_12_" transform="matrix(1 0 0 1 259.0671 115.9718)" class="st12 st25 st26">GAM</text>
<g id="XMLID_6_">
	<g id="XMLID_42_">
		<linearGradient id="XMLID_21_" gradientUnits="userSpaceOnUse" x1="306.19" y1="100.8491" x2="332.9767" y2="118.2445">
			<stop  offset="0" style="stop-color:#2E6DB6"/>
			<stop  offset="1" style="stop-color:#5AB0E2"/>
		</linearGradient>
		<path id="XMLID_47_" class="st27" d="M305.1,102.5h2.5V116h-2.5V102.5z"/>
		<linearGradient id="XMLID_22_" gradientUnits="userSpaceOnUse" x1="306.19" y1="100.8491" x2="332.9767" y2="118.2445">
			<stop  offset="0" style="stop-color:#2E6DB6"/>
			<stop  offset="1" style="stop-color:#5AB0E2"/>
		</linearGradient>
		<path id="XMLID_45_" class="st28" d="M310.4,102.5h3l5.4,9h0.2l-0.2-2.6v-6.4h2.5V116h-2.7l-5.7-9.5h-0.2l0.2,2.6v6.9h-2.5V102.5z
			"/>
		<linearGradient id="XMLID_23_" gradientUnits="userSpaceOnUse" x1="306.19" y1="100.8491" x2="332.9767" y2="118.2445">
			<stop  offset="0" style="stop-color:#2E6DB6"/>
			<stop  offset="1" style="stop-color:#5AB0E2"/>
		</linearGradient>
		<path id="XMLID_43_" class="st29" d="M330.4,108.6h6.6c0,0.2,0.1,0.3,0.1,0.5c0,0.2,0,0.4,0,0.6c0,0.9-0.1,1.7-0.4,2.4
			s-0.7,1.4-1.2,2c-0.6,0.6-1.3,1.1-2.2,1.5c-0.8,0.4-1.8,0.5-2.9,0.5c-1,0-1.9-0.2-2.8-0.5s-1.6-0.8-2.3-1.5
			c-0.6-0.6-1.1-1.4-1.5-2.2c-0.4-0.9-0.6-1.8-0.6-2.8s0.2-2,0.6-2.8c0.4-0.9,0.9-1.6,1.5-2.2c0.6-0.6,1.4-1.1,2.3-1.5
			c0.9-0.4,1.8-0.5,2.8-0.5c1.1,0,2.1,0.2,2.9,0.6c0.9,0.4,1.6,0.9,2.2,1.6l-1.7,1.7c-0.4-0.5-0.9-0.8-1.5-1.1
			c-0.5-0.2-1.2-0.4-1.9-0.4c-0.6,0-1.2,0.1-1.7,0.3c-0.6,0.2-1,0.5-1.4,0.9c-0.4,0.4-0.7,0.9-1,1.5c-0.2,0.6-0.4,1.2-0.4,1.9
			s0.1,1.3,0.4,1.9c0.2,0.6,0.6,1.1,1,1.5c0.4,0.4,0.9,0.7,1.5,0.9s1.1,0.3,1.8,0.3c0.7,0,1.3-0.1,1.8-0.3s0.9-0.5,1.3-0.8
			c0.3-0.2,0.5-0.5,0.6-0.9s0.3-0.7,0.4-1.2h-4.2V108.6z"/>
	</g>
</g>
<g>
	<path class="st12" d="M77.1,121.3c-1.4,2.8-6,11.1-16.2,18.3c-2-1.6-3.6-3.7-4.7-6c-0.1-0.2-0.2-0.4-0.3-0.6c0,0,0,0,0,0
		c-0.9-2-1.5-4.3-1.6-6.6c0-0.3,0-0.6,0-0.8c0-0.5,0-1.1,0.1-1.6v0c0.9-8.4,17.8-5.3,21.9-4.5c0,0.2,0.1,0.4,0.2,0.7
		C76.6,120.5,76.8,120.9,77.1,121.3z"/>
	<path class="st12" d="M85.4,112.3c-1,1.4-3,3.1-4.6,4.5c-0.5-0.5-1.1-0.8-1.8-0.8c-2.1-5.1-5.6-7.8-7.3-8.8c0.3,0,0.6,0,0.9,0
		c0.7,0,1.4,0,2,0.1h0c3.6,0.4,7,1.9,9.6,4.1C84.7,111.7,85,112,85.4,112.3z"/>
	<path class="st12" d="M90.9,126.8c-0.1,2-0.6,3.9-1.3,5.6c-1.5,3.5-4,6.5-7.2,8.6c-0.2,0.1-0.4,0.2-0.5,0.3
		c1.5-2.8,2.6-10-1.1-19.5c0.6-0.4,1-1.2,1.1-2C86.2,120.8,89.3,123.7,90.9,126.8z"/>
	<linearGradient id="SVGID_12_" gradientUnits="userSpaceOnUse" x1="72.0616" y1="120.0154" x2="72.0616" y2="143.8304">
		<stop  offset="0" style="stop-color:#EE2E7C"/>
		<stop  offset="1" style="stop-color:#922A8E"/>
	</linearGradient>
	<path class="st30" d="M81.8,141.4L81.8,141.4c-1,0.6-2.1,1.1-3.3,1.5c-1.9,0.6-3.9,1-5.9,1c-4.5,0-8.6-1.6-11.8-4.3
		c10.2-7.2,14.8-15.5,16.2-18.3c0.3-0.6,0.4-1,0.4-1L80,120c0.3,0.6,0.5,1.2,0.8,1.8C84.5,131.4,83.3,138.6,81.8,141.4z"/>
	<linearGradient id="SVGID_13_" gradientUnits="userSpaceOnUse" x1="58.9716" y1="112.8749" x2="75.757" y2="123.7754">
		<stop  offset="0" style="stop-color:#2E6DB6"/>
		<stop  offset="1" style="stop-color:#5AB0E2"/>
	</linearGradient>
	<path class="st31" d="M79.7,117.7C79.7,117.7,79.7,117.8,79.7,117.7l-2.5,1.9c0,0-0.3-0.1-0.9-0.2c-4.1-0.9-21-3.9-21.9,4.5
		c0.8-9.1,8.2-16.3,17.4-16.7c1.7,1,5.1,3.7,7.3,8.8C79.3,116.5,79.5,117.1,79.7,117.7z"/>
	<linearGradient id="SVGID_14_" gradientUnits="userSpaceOnUse" x1="80.6789" y1="115.1428" x2="93.2101" y2="123.2807">
		<stop  offset="0" style="stop-color:#F89521"/>
		<stop  offset="1" style="stop-color:#F8ED34"/>
	</linearGradient>
	<path class="st32" d="M91,125.5c0,0.4,0,0.9-0.1,1.3c-1.6-3.1-4.7-6.1-9-6.9c0,0,0,0,0,0c-1.1-0.2-2.2-0.3-3.3-0.2l-0.3-0.8
		c0,0,0.6-0.4,1.4-1.1c0,0,0,0,0,0c0.3-0.3,0.7-0.6,1.1-0.9c1.6-1.4,3.6-3.1,4.6-4.5c3.2,3.1,5.3,7.5,5.6,12.3
		C91,124.9,91,125.2,91,125.5z"/>
	<path class="st33" d="M81.9,119.9C81.9,119.9,81.9,119.9,81.9,119.9c-0.1,0.8-0.5,1.5-1.1,2c-0.2,0.1-0.4,0.2-0.6,0.3
		c-1.1,0.4-2.3,0-3.1-0.9c-0.3-0.3-0.5-0.7-0.7-1.1c-0.1-0.2-0.1-0.4-0.2-0.7c-0.2-1.5,0.5-2.9,1.7-3.3c0.3-0.1,0.7-0.2,1-0.1
		c0.6,0,1.3,0.3,1.8,0.8c0.4,0.4,0.7,0.8,0.9,1.4C81.9,118.8,82,119.3,81.9,119.9z"/>
</g>
<path class="st7" d="M57.3,140.7c0,0,7.1-3.5,14.8-0.8c8.1,2.9,14.1-2.3,15.7-3.1c0.4-0.2,0.6,0.2,0.7,0.8c0.4,3.7-2.7,6.8-6.4,6.8
	H65.6C62.4,144.4,59.4,143.1,57.3,140.7L57.3,140.7z"/>
<path class="st12" d="M64.7,111"/>
<path class="st12" d="M63.7,114.2"/>
<path class="st34" d="M51.4,117.3"/>
</svg>
